%FSLAX45Y45*%
G04 Gerber Fmt 4.5, Leading zero omitted, Abs format (unit mm)*
G04 Created by KiCad (PCBNEW (5.1.12)-1) date 2022-10-19 19:02:05*
%MOMM*%
%LPD*%
G01*
G04 APERTURE LIST*
%TA.AperFunction,Profile*%
%ADD10C,0.050000*%
%TD*%
%ADD11C,0.200000*%
%ADD12C,0.300000*%
G04 APERTURE END LIST*
D10*
X20066000Y-11684000D02*
X20066000Y-8509000D01*
X9779000Y-8509000D02*
X9779000Y-11684000D01*
X19050000Y-7493000D02*
X10795000Y-7493000D01*
X10795000Y-12700000D02*
X19050000Y-12700000D01*
X20066000Y-8509000D02*
X19050000Y-7493000D01*
X20066000Y-11684000D02*
X19050000Y-12700000D01*
X10795000Y-7493000D02*
X9779000Y-8509000D01*
X10795000Y-12700000D02*
X9779000Y-11684000D01*
D11*
X10557830Y-10202230D02*
X10597830Y-10242230D01*
X10597830Y-10202230D02*
X10557830Y-10242230D01*
X10876600Y-10876600D02*
X10916600Y-10916600D01*
X10916600Y-10876600D02*
X10876600Y-10916600D01*
X10902000Y-9898700D02*
X10942000Y-9938700D01*
X10942000Y-9898700D02*
X10902000Y-9938700D01*
X11829100Y-10876600D02*
X11869100Y-10916600D01*
X11869100Y-10876600D02*
X11829100Y-10916600D01*
X11841800Y-9886000D02*
X11881800Y-9926000D01*
X11881800Y-9886000D02*
X11841800Y-9926000D01*
X12997500Y-11257600D02*
X13037500Y-11297600D01*
X13037500Y-11257600D02*
X12997500Y-11297600D01*
X13919520Y-9687880D02*
X13959520Y-9727880D01*
X13959520Y-9687880D02*
X13919520Y-9727880D01*
X14254800Y-8565200D02*
X14294800Y-8605200D01*
X14294800Y-8565200D02*
X14254800Y-8605200D01*
X14267500Y-10775000D02*
X14307500Y-10815000D01*
X14307500Y-10775000D02*
X14267500Y-10815000D01*
X14272580Y-11296970D02*
X14312580Y-11336970D01*
X14312580Y-11296970D02*
X14272580Y-11336970D01*
X14635800Y-11156000D02*
X14675800Y-11196000D01*
X14675800Y-11156000D02*
X14635800Y-11196000D01*
X14635800Y-12057700D02*
X14675800Y-12097700D01*
X14675800Y-12057700D02*
X14635800Y-12097700D01*
X14648500Y-10787700D02*
X14688500Y-10827700D01*
X14688500Y-10787700D02*
X14648500Y-10827700D01*
X14648500Y-11295700D02*
X14688500Y-11335700D01*
X14688500Y-11295700D02*
X14648500Y-11335700D01*
X14661200Y-11803700D02*
X14701200Y-11843700D01*
X14701200Y-11803700D02*
X14661200Y-11843700D01*
X14839000Y-12273600D02*
X14879000Y-12313600D01*
X14879000Y-12273600D02*
X14839000Y-12313600D01*
X15372400Y-10241600D02*
X15412400Y-10281600D01*
X15412400Y-10241600D02*
X15372400Y-10281600D01*
X15397800Y-9555800D02*
X15437800Y-9595800D01*
X15437800Y-9555800D02*
X15397800Y-9595800D01*
X15397800Y-9822500D02*
X15437800Y-9862500D01*
X15437800Y-9822500D02*
X15397800Y-9862500D01*
X15823250Y-10482900D02*
X15863250Y-10522900D01*
X15863250Y-10482900D02*
X15823250Y-10522900D01*
X16006130Y-9393240D02*
X16046130Y-9433240D01*
X16046130Y-9393240D02*
X16006130Y-9433240D01*
X16195360Y-12172000D02*
X16235360Y-12212000D01*
X16235360Y-12172000D02*
X16195360Y-12212000D01*
X16197900Y-10495600D02*
X16237900Y-10535600D01*
X16237900Y-10495600D02*
X16197900Y-10535600D01*
X16947200Y-11765600D02*
X16987200Y-11805600D01*
X16987200Y-11765600D02*
X16947200Y-11805600D01*
X14137000Y-8775700D02*
G75*
G03*
X14137000Y-8775700I-40000J0D01*
G01*
X14137000Y-9029700D02*
G75*
G03*
X14137000Y-9029700I-40000J0D01*
G01*
X14137000Y-9283700D02*
G75*
G03*
X14137000Y-9283700I-40000J0D01*
G01*
X14137000Y-9537700D02*
G75*
G03*
X14137000Y-9537700I-40000J0D01*
G01*
X14137000Y-9791700D02*
G75*
G03*
X14137000Y-9791700I-40000J0D01*
G01*
X14137000Y-10045700D02*
G75*
G03*
X14137000Y-10045700I-40000J0D01*
G01*
X14137000Y-10299700D02*
G75*
G03*
X14137000Y-10299700I-40000J0D01*
G01*
X14137000Y-10553700D02*
G75*
G03*
X14137000Y-10553700I-40000J0D01*
G01*
X14137000Y-10807700D02*
G75*
G03*
X14137000Y-10807700I-40000J0D01*
G01*
X14137000Y-11061700D02*
G75*
G03*
X14137000Y-11061700I-40000J0D01*
G01*
X14137000Y-11315700D02*
G75*
G03*
X14137000Y-11315700I-40000J0D01*
G01*
X14137000Y-11569700D02*
G75*
G03*
X14137000Y-11569700I-40000J0D01*
G01*
X14137000Y-11823700D02*
G75*
G03*
X14137000Y-11823700I-40000J0D01*
G01*
X14137000Y-12077700D02*
G75*
G03*
X14137000Y-12077700I-40000J0D01*
G01*
X14899000Y-8775700D02*
G75*
G03*
X14899000Y-8775700I-40000J0D01*
G01*
X14899000Y-9029700D02*
G75*
G03*
X14899000Y-9029700I-40000J0D01*
G01*
X14899000Y-9283700D02*
G75*
G03*
X14899000Y-9283700I-40000J0D01*
G01*
X14899000Y-9537700D02*
G75*
G03*
X14899000Y-9537700I-40000J0D01*
G01*
X14899000Y-9791700D02*
G75*
G03*
X14899000Y-9791700I-40000J0D01*
G01*
X14899000Y-10045700D02*
G75*
G03*
X14899000Y-10045700I-40000J0D01*
G01*
X14899000Y-10299700D02*
G75*
G03*
X14899000Y-10299700I-40000J0D01*
G01*
X14899000Y-10553700D02*
G75*
G03*
X14899000Y-10553700I-40000J0D01*
G01*
X14899000Y-10807700D02*
G75*
G03*
X14899000Y-10807700I-40000J0D01*
G01*
X14899000Y-11061700D02*
G75*
G03*
X14899000Y-11061700I-40000J0D01*
G01*
X14899000Y-11315700D02*
G75*
G03*
X14899000Y-11315700I-40000J0D01*
G01*
X14899000Y-11569700D02*
G75*
G03*
X14899000Y-11569700I-40000J0D01*
G01*
X14899000Y-11823700D02*
G75*
G03*
X14899000Y-11823700I-40000J0D01*
G01*
X14899000Y-12077700D02*
G75*
G03*
X14899000Y-12077700I-40000J0D01*
G01*
X10337800Y-9925050D02*
X10337800Y-10013950D01*
X10293350Y-9969500D02*
X10382250Y-9969500D01*
X10337800Y-10179050D02*
X10337800Y-10267950D01*
X10293350Y-10223500D02*
X10382250Y-10223500D01*
X10337800Y-10433050D02*
X10337800Y-10521950D01*
X10293350Y-10477500D02*
X10382250Y-10477500D01*
X11099800Y-11195050D02*
X11099800Y-11283950D01*
X11055350Y-11239500D02*
X11144250Y-11239500D01*
X11353800Y-11195050D02*
X11353800Y-11283950D01*
X11309350Y-11239500D02*
X11398250Y-11239500D01*
X11607800Y-11195050D02*
X11607800Y-11283950D01*
X11563350Y-11239500D02*
X11652250Y-11239500D01*
X17449800Y-10026650D02*
X17449800Y-10115550D01*
X17405350Y-10071100D02*
X17494250Y-10071100D01*
X17449800Y-10280650D02*
X17449800Y-10369550D01*
X17405350Y-10325100D02*
X17494250Y-10325100D01*
X17449800Y-10534650D02*
X17449800Y-10623550D01*
X17405350Y-10579100D02*
X17494250Y-10579100D01*
X18211800Y-11296650D02*
X18211800Y-11385550D01*
X18167350Y-11341100D02*
X18256250Y-11341100D01*
X18465800Y-11296650D02*
X18465800Y-11385550D01*
X18421350Y-11341100D02*
X18510250Y-11341100D01*
X18719800Y-11296650D02*
X18719800Y-11385550D01*
X18675350Y-11341100D02*
X18764250Y-11341100D01*
X11068120Y-8985320D02*
X11068120Y-8921680D01*
X11004480Y-8921680D01*
X11004480Y-8985320D01*
X11068120Y-8985320D01*
X11068120Y-9493320D02*
X11068120Y-9429680D01*
X11004480Y-9429680D01*
X11004480Y-9493320D01*
X11068120Y-9493320D01*
X11703120Y-8985320D02*
X11703120Y-8921680D01*
X11639480Y-8921680D01*
X11639480Y-8985320D01*
X11703120Y-8985320D01*
X11703120Y-9493320D02*
X11703120Y-9429680D01*
X11639480Y-9429680D01*
X11639480Y-9493320D01*
X11703120Y-9493320D01*
X18180120Y-9086920D02*
X18180120Y-9023280D01*
X18116480Y-9023280D01*
X18116480Y-9086920D01*
X18180120Y-9086920D01*
X18180120Y-9594920D02*
X18180120Y-9531280D01*
X18116480Y-9531280D01*
X18116480Y-9594920D01*
X18180120Y-9594920D01*
X18815120Y-9086920D02*
X18815120Y-9023280D01*
X18751480Y-9023280D01*
X18751480Y-9086920D01*
X18815120Y-9086920D01*
X18815120Y-9594920D02*
X18815120Y-9531280D01*
X18751480Y-9531280D01*
X18751480Y-9594920D01*
X18815120Y-9594920D01*
X12586970Y-12169610D02*
X12636970Y-12119610D01*
X12586970Y-12069610D01*
X12536970Y-12119610D01*
X12586970Y-12169610D01*
X12840970Y-12169610D02*
X12890970Y-12119610D01*
X12840970Y-12069610D01*
X12790970Y-12119610D01*
X12840970Y-12169610D01*
X13094970Y-12169610D02*
X13144970Y-12119610D01*
X13094970Y-12069610D01*
X13044970Y-12119610D01*
X13094970Y-12169610D01*
X13258800Y-11695900D02*
X13308800Y-11645900D01*
X13258800Y-11595900D01*
X13208800Y-11645900D01*
X13258800Y-11695900D01*
X13512800Y-11695900D02*
X13562800Y-11645900D01*
X13512800Y-11595900D01*
X13462800Y-11645900D01*
X13512800Y-11695900D01*
X13512800Y-12168340D02*
X13562800Y-12118340D01*
X13512800Y-12068340D01*
X13462800Y-12118340D01*
X13512800Y-12168340D01*
X13766800Y-11695900D02*
X13816800Y-11645900D01*
X13766800Y-11595900D01*
X13716800Y-11645900D01*
X13766800Y-11695900D01*
X13766800Y-12168340D02*
X13816800Y-12118340D01*
X13766800Y-12068340D01*
X13716800Y-12118340D01*
X13766800Y-12168340D01*
X15189200Y-10298900D02*
X15239200Y-10248900D01*
X15189200Y-10198900D01*
X15139200Y-10248900D01*
X15189200Y-10298900D01*
X15189200Y-10552900D02*
X15239200Y-10502900D01*
X15189200Y-10452900D01*
X15139200Y-10502900D01*
X15189200Y-10552900D01*
X15189200Y-10806900D02*
X15239200Y-10756900D01*
X15189200Y-10706900D01*
X15139200Y-10756900D01*
X15189200Y-10806900D01*
X15189200Y-11060900D02*
X15239200Y-11010900D01*
X15189200Y-10960900D01*
X15139200Y-11010900D01*
X15189200Y-11060900D01*
X15189200Y-11314900D02*
X15239200Y-11264900D01*
X15189200Y-11214900D01*
X15139200Y-11264900D01*
X15189200Y-11314900D01*
X15189200Y-11568900D02*
X15239200Y-11518900D01*
X15189200Y-11468900D01*
X15139200Y-11518900D01*
X15189200Y-11568900D01*
X10521950Y-9486900D02*
X10661650Y-9626600D01*
X10661650Y-9486900D02*
X10521950Y-9626600D01*
X10661650Y-9556750D02*
G75*
G03*
X10661650Y-9556750I-69850J0D01*
G01*
X10521950Y-10820400D02*
X10661650Y-10960100D01*
X10661650Y-10820400D02*
X10521950Y-10960100D01*
X10661650Y-10890250D02*
G75*
G03*
X10661650Y-10890250I-69850J0D01*
G01*
X12045950Y-9486900D02*
X12185650Y-9626600D01*
X12185650Y-9486900D02*
X12045950Y-9626600D01*
X12185650Y-9556750D02*
G75*
G03*
X12185650Y-9556750I-69850J0D01*
G01*
X12045950Y-10820400D02*
X12185650Y-10960100D01*
X12185650Y-10820400D02*
X12045950Y-10960100D01*
X12185650Y-10890250D02*
G75*
G03*
X12185650Y-10890250I-69850J0D01*
G01*
X17633950Y-9588500D02*
X17773650Y-9728200D01*
X17773650Y-9588500D02*
X17633950Y-9728200D01*
X17773650Y-9658350D02*
G75*
G03*
X17773650Y-9658350I-69850J0D01*
G01*
X17633950Y-10922000D02*
X17773650Y-11061700D01*
X17773650Y-10922000D02*
X17633950Y-11061700D01*
X17773650Y-10991850D02*
G75*
G03*
X17773650Y-10991850I-69850J0D01*
G01*
X19157950Y-9588500D02*
X19297650Y-9728200D01*
X19297650Y-9588500D02*
X19157950Y-9728200D01*
X19297650Y-9658350D02*
G75*
G03*
X19297650Y-9658350I-69850J0D01*
G01*
X19157950Y-10922000D02*
X19297650Y-11061700D01*
X19297650Y-10922000D02*
X19157950Y-11061700D01*
X19297650Y-10991850D02*
G75*
G03*
X19297650Y-10991850I-69850J0D01*
G01*
X15655400Y-10880300D02*
X15840400Y-11065300D01*
X15840400Y-10880300D02*
X15655400Y-11065300D01*
X15747900Y-10880300D02*
X15747900Y-11065300D01*
X15655400Y-10972800D02*
X15840400Y-10972800D01*
X15655400Y-11693100D02*
X15840400Y-11878100D01*
X15840400Y-11693100D02*
X15655400Y-11878100D01*
X15747900Y-11693100D02*
X15747900Y-11878100D01*
X15655400Y-11785600D02*
X15840400Y-11785600D01*
X16125400Y-10880300D02*
X16310400Y-11065300D01*
X16310400Y-10880300D02*
X16125400Y-11065300D01*
X16217900Y-10880300D02*
X16217900Y-11065300D01*
X16125400Y-10972800D02*
X16310400Y-10972800D01*
X16125400Y-11693100D02*
X16310400Y-11878100D01*
X16310400Y-11693100D02*
X16125400Y-11878100D01*
X16217900Y-11693100D02*
X16217900Y-11878100D01*
X16125400Y-11785600D02*
X16310400Y-11785600D01*
X16595400Y-10880300D02*
X16780400Y-11065300D01*
X16780400Y-10880300D02*
X16595400Y-11065300D01*
X16687900Y-10880300D02*
X16687900Y-11065300D01*
X16595400Y-10972800D02*
X16780400Y-10972800D01*
X16595400Y-11693100D02*
X16780400Y-11878100D01*
X16780400Y-11693100D02*
X16595400Y-11878100D01*
X16687900Y-11693100D02*
X16687900Y-11878100D01*
X16595400Y-11785600D02*
X16780400Y-11785600D01*
D12*
X10062928Y-13168214D02*
X10062928Y-12868214D01*
X10134357Y-12868214D01*
X10177214Y-12882500D01*
X10205786Y-12911071D01*
X10220071Y-12939643D01*
X10234357Y-12996786D01*
X10234357Y-13039643D01*
X10220071Y-13096786D01*
X10205786Y-13125357D01*
X10177214Y-13153929D01*
X10134357Y-13168214D01*
X10062928Y-13168214D01*
X10362928Y-13168214D02*
X10362928Y-12968214D01*
X10362928Y-13025357D02*
X10377214Y-12996786D01*
X10391500Y-12982500D01*
X10420071Y-12968214D01*
X10448643Y-12968214D01*
X10548643Y-13168214D02*
X10548643Y-12968214D01*
X10548643Y-12868214D02*
X10534357Y-12882500D01*
X10548643Y-12896786D01*
X10562928Y-12882500D01*
X10548643Y-12868214D01*
X10548643Y-12896786D01*
X10734357Y-13168214D02*
X10705786Y-13153929D01*
X10691500Y-13125357D01*
X10691500Y-12868214D01*
X10891500Y-13168214D02*
X10862928Y-13153929D01*
X10848643Y-13125357D01*
X10848643Y-12868214D01*
X11234357Y-13168214D02*
X11234357Y-12868214D01*
X11334357Y-13082500D01*
X11434357Y-12868214D01*
X11434357Y-13168214D01*
X11705786Y-13168214D02*
X11705786Y-13011071D01*
X11691500Y-12982500D01*
X11662928Y-12968214D01*
X11605786Y-12968214D01*
X11577214Y-12982500D01*
X11705786Y-13153929D02*
X11677214Y-13168214D01*
X11605786Y-13168214D01*
X11577214Y-13153929D01*
X11562928Y-13125357D01*
X11562928Y-13096786D01*
X11577214Y-13068214D01*
X11605786Y-13053929D01*
X11677214Y-13053929D01*
X11705786Y-13039643D01*
X11848643Y-12968214D02*
X11848643Y-13268214D01*
X11848643Y-12982500D02*
X11877214Y-12968214D01*
X11934357Y-12968214D01*
X11962928Y-12982500D01*
X11977214Y-12996786D01*
X11991500Y-13025357D01*
X11991500Y-13111071D01*
X11977214Y-13139643D01*
X11962928Y-13153929D01*
X11934357Y-13168214D01*
X11877214Y-13168214D01*
X11848643Y-13153929D01*
X12120071Y-13139643D02*
X12134357Y-13153929D01*
X12120071Y-13168214D01*
X12105786Y-13153929D01*
X12120071Y-13139643D01*
X12120071Y-13168214D01*
X12120071Y-12982500D02*
X12134357Y-12996786D01*
X12120071Y-13011071D01*
X12105786Y-12996786D01*
X12120071Y-12982500D01*
X12120071Y-13011071D01*
X9736500Y-13642500D02*
X9776500Y-13682500D01*
X9776500Y-13642500D02*
X9736500Y-13682500D01*
X10120071Y-13498214D02*
X10148643Y-13498214D01*
X10177214Y-13512500D01*
X10191500Y-13526786D01*
X10205786Y-13555357D01*
X10220071Y-13612500D01*
X10220071Y-13683929D01*
X10205786Y-13741071D01*
X10191500Y-13769643D01*
X10177214Y-13783929D01*
X10148643Y-13798214D01*
X10120071Y-13798214D01*
X10091500Y-13783929D01*
X10077214Y-13769643D01*
X10062928Y-13741071D01*
X10048643Y-13683929D01*
X10048643Y-13612500D01*
X10062928Y-13555357D01*
X10077214Y-13526786D01*
X10091500Y-13512500D01*
X10120071Y-13498214D01*
X10348643Y-13769643D02*
X10362928Y-13783929D01*
X10348643Y-13798214D01*
X10334357Y-13783929D01*
X10348643Y-13769643D01*
X10348643Y-13798214D01*
X10620071Y-13598214D02*
X10620071Y-13798214D01*
X10548643Y-13483929D02*
X10477214Y-13698214D01*
X10662928Y-13698214D01*
X10834357Y-13498214D02*
X10862928Y-13498214D01*
X10891500Y-13512500D01*
X10905786Y-13526786D01*
X10920071Y-13555357D01*
X10934357Y-13612500D01*
X10934357Y-13683929D01*
X10920071Y-13741071D01*
X10905786Y-13769643D01*
X10891500Y-13783929D01*
X10862928Y-13798214D01*
X10834357Y-13798214D01*
X10805786Y-13783929D01*
X10791500Y-13769643D01*
X10777214Y-13741071D01*
X10762928Y-13683929D01*
X10762928Y-13612500D01*
X10777214Y-13555357D01*
X10791500Y-13526786D01*
X10805786Y-13512500D01*
X10834357Y-13498214D01*
X11120071Y-13498214D02*
X11148643Y-13498214D01*
X11177214Y-13512500D01*
X11191500Y-13526786D01*
X11205786Y-13555357D01*
X11220071Y-13612500D01*
X11220071Y-13683929D01*
X11205786Y-13741071D01*
X11191500Y-13769643D01*
X11177214Y-13783929D01*
X11148643Y-13798214D01*
X11120071Y-13798214D01*
X11091500Y-13783929D01*
X11077214Y-13769643D01*
X11062928Y-13741071D01*
X11048643Y-13683929D01*
X11048643Y-13612500D01*
X11062928Y-13555357D01*
X11077214Y-13526786D01*
X11091500Y-13512500D01*
X11120071Y-13498214D01*
X11348643Y-13798214D02*
X11348643Y-13598214D01*
X11348643Y-13626786D02*
X11362928Y-13612500D01*
X11391500Y-13598214D01*
X11434357Y-13598214D01*
X11462928Y-13612500D01*
X11477214Y-13641071D01*
X11477214Y-13798214D01*
X11477214Y-13641071D02*
X11491500Y-13612500D01*
X11520071Y-13598214D01*
X11562928Y-13598214D01*
X11591500Y-13612500D01*
X11605786Y-13641071D01*
X11605786Y-13798214D01*
X11748643Y-13798214D02*
X11748643Y-13598214D01*
X11748643Y-13626786D02*
X11762928Y-13612500D01*
X11791500Y-13598214D01*
X11834357Y-13598214D01*
X11862928Y-13612500D01*
X11877214Y-13641071D01*
X11877214Y-13798214D01*
X11877214Y-13641071D02*
X11891500Y-13612500D01*
X11920071Y-13598214D01*
X11962928Y-13598214D01*
X11991500Y-13612500D01*
X12005786Y-13641071D01*
X12005786Y-13798214D01*
X12591500Y-13483929D02*
X12334357Y-13869643D01*
X12977214Y-13498214D02*
X13005786Y-13498214D01*
X13034357Y-13512500D01*
X13048643Y-13526786D01*
X13062928Y-13555357D01*
X13077214Y-13612500D01*
X13077214Y-13683929D01*
X13062928Y-13741071D01*
X13048643Y-13769643D01*
X13034357Y-13783929D01*
X13005786Y-13798214D01*
X12977214Y-13798214D01*
X12948643Y-13783929D01*
X12934357Y-13769643D01*
X12920071Y-13741071D01*
X12905786Y-13683929D01*
X12905786Y-13612500D01*
X12920071Y-13555357D01*
X12934357Y-13526786D01*
X12948643Y-13512500D01*
X12977214Y-13498214D01*
X13205786Y-13769643D02*
X13220071Y-13783929D01*
X13205786Y-13798214D01*
X13191500Y-13783929D01*
X13205786Y-13769643D01*
X13205786Y-13798214D01*
X13405786Y-13498214D02*
X13434357Y-13498214D01*
X13462928Y-13512500D01*
X13477214Y-13526786D01*
X13491500Y-13555357D01*
X13505786Y-13612500D01*
X13505786Y-13683929D01*
X13491500Y-13741071D01*
X13477214Y-13769643D01*
X13462928Y-13783929D01*
X13434357Y-13798214D01*
X13405786Y-13798214D01*
X13377214Y-13783929D01*
X13362928Y-13769643D01*
X13348643Y-13741071D01*
X13334357Y-13683929D01*
X13334357Y-13612500D01*
X13348643Y-13555357D01*
X13362928Y-13526786D01*
X13377214Y-13512500D01*
X13405786Y-13498214D01*
X13791500Y-13798214D02*
X13620071Y-13798214D01*
X13705786Y-13798214D02*
X13705786Y-13498214D01*
X13677214Y-13541071D01*
X13648643Y-13569643D01*
X13620071Y-13583929D01*
X14062928Y-13498214D02*
X13920071Y-13498214D01*
X13905786Y-13641071D01*
X13920071Y-13626786D01*
X13948643Y-13612500D01*
X14020071Y-13612500D01*
X14048643Y-13626786D01*
X14062928Y-13641071D01*
X14077214Y-13669643D01*
X14077214Y-13741071D01*
X14062928Y-13769643D01*
X14048643Y-13783929D01*
X14020071Y-13798214D01*
X13948643Y-13798214D01*
X13920071Y-13783929D01*
X13905786Y-13769643D01*
X14177214Y-13498214D02*
X14377214Y-13498214D01*
X14248643Y-13798214D01*
X14477214Y-13498214D02*
X14477214Y-13555357D01*
X14591500Y-13498214D02*
X14591500Y-13555357D01*
X15034357Y-13912500D02*
X15020071Y-13898214D01*
X14991500Y-13855357D01*
X14977214Y-13826786D01*
X14962928Y-13783929D01*
X14948643Y-13712500D01*
X14948643Y-13655357D01*
X14962928Y-13583929D01*
X14977214Y-13541071D01*
X14991500Y-13512500D01*
X15020071Y-13469643D01*
X15034357Y-13455357D01*
X15134357Y-13526786D02*
X15148643Y-13512500D01*
X15177214Y-13498214D01*
X15248643Y-13498214D01*
X15277214Y-13512500D01*
X15291500Y-13526786D01*
X15305786Y-13555357D01*
X15305786Y-13583929D01*
X15291500Y-13626786D01*
X15120071Y-13798214D01*
X15305786Y-13798214D01*
X15562928Y-13598214D02*
X15562928Y-13798214D01*
X15491500Y-13483929D02*
X15420071Y-13698214D01*
X15605786Y-13698214D01*
X15948643Y-13798214D02*
X15948643Y-13498214D01*
X16077214Y-13798214D02*
X16077214Y-13641071D01*
X16062928Y-13612500D01*
X16034357Y-13598214D01*
X15991500Y-13598214D01*
X15962928Y-13612500D01*
X15948643Y-13626786D01*
X16262928Y-13798214D02*
X16234357Y-13783929D01*
X16220071Y-13769643D01*
X16205786Y-13741071D01*
X16205786Y-13655357D01*
X16220071Y-13626786D01*
X16234357Y-13612500D01*
X16262928Y-13598214D01*
X16305786Y-13598214D01*
X16334357Y-13612500D01*
X16348643Y-13626786D01*
X16362928Y-13655357D01*
X16362928Y-13741071D01*
X16348643Y-13769643D01*
X16334357Y-13783929D01*
X16305786Y-13798214D01*
X16262928Y-13798214D01*
X16534357Y-13798214D02*
X16505786Y-13783929D01*
X16491500Y-13755357D01*
X16491500Y-13498214D01*
X16762928Y-13783929D02*
X16734357Y-13798214D01*
X16677214Y-13798214D01*
X16648643Y-13783929D01*
X16634357Y-13755357D01*
X16634357Y-13641071D01*
X16648643Y-13612500D01*
X16677214Y-13598214D01*
X16734357Y-13598214D01*
X16762928Y-13612500D01*
X16777214Y-13641071D01*
X16777214Y-13669643D01*
X16634357Y-13698214D01*
X16891500Y-13783929D02*
X16920071Y-13798214D01*
X16977214Y-13798214D01*
X17005786Y-13783929D01*
X17020071Y-13755357D01*
X17020071Y-13741071D01*
X17005786Y-13712500D01*
X16977214Y-13698214D01*
X16934357Y-13698214D01*
X16905786Y-13683929D01*
X16891500Y-13655357D01*
X16891500Y-13641071D01*
X16905786Y-13612500D01*
X16934357Y-13598214D01*
X16977214Y-13598214D01*
X17005786Y-13612500D01*
X17120071Y-13912500D02*
X17134357Y-13898214D01*
X17162928Y-13855357D01*
X17177214Y-13826786D01*
X17191500Y-13783929D01*
X17205786Y-13712500D01*
X17205786Y-13655357D01*
X17191500Y-13583929D01*
X17177214Y-13541071D01*
X17162928Y-13512500D01*
X17134357Y-13469643D01*
X17120071Y-13455357D01*
X9776500Y-14058500D02*
G75*
G03*
X9776500Y-14058500I-40000J0D01*
G01*
X10120071Y-13894214D02*
X10148643Y-13894214D01*
X10177214Y-13908500D01*
X10191500Y-13922786D01*
X10205786Y-13951357D01*
X10220071Y-14008500D01*
X10220071Y-14079929D01*
X10205786Y-14137071D01*
X10191500Y-14165643D01*
X10177214Y-14179929D01*
X10148643Y-14194214D01*
X10120071Y-14194214D01*
X10091500Y-14179929D01*
X10077214Y-14165643D01*
X10062928Y-14137071D01*
X10048643Y-14079929D01*
X10048643Y-14008500D01*
X10062928Y-13951357D01*
X10077214Y-13922786D01*
X10091500Y-13908500D01*
X10120071Y-13894214D01*
X10348643Y-14165643D02*
X10362928Y-14179929D01*
X10348643Y-14194214D01*
X10334357Y-14179929D01*
X10348643Y-14165643D01*
X10348643Y-14194214D01*
X10534357Y-14022786D02*
X10505786Y-14008500D01*
X10491500Y-13994214D01*
X10477214Y-13965643D01*
X10477214Y-13951357D01*
X10491500Y-13922786D01*
X10505786Y-13908500D01*
X10534357Y-13894214D01*
X10591500Y-13894214D01*
X10620071Y-13908500D01*
X10634357Y-13922786D01*
X10648643Y-13951357D01*
X10648643Y-13965643D01*
X10634357Y-13994214D01*
X10620071Y-14008500D01*
X10591500Y-14022786D01*
X10534357Y-14022786D01*
X10505786Y-14037071D01*
X10491500Y-14051357D01*
X10477214Y-14079929D01*
X10477214Y-14137071D01*
X10491500Y-14165643D01*
X10505786Y-14179929D01*
X10534357Y-14194214D01*
X10591500Y-14194214D01*
X10620071Y-14179929D01*
X10634357Y-14165643D01*
X10648643Y-14137071D01*
X10648643Y-14079929D01*
X10634357Y-14051357D01*
X10620071Y-14037071D01*
X10591500Y-14022786D01*
X10834357Y-13894214D02*
X10862928Y-13894214D01*
X10891500Y-13908500D01*
X10905786Y-13922786D01*
X10920071Y-13951357D01*
X10934357Y-14008500D01*
X10934357Y-14079929D01*
X10920071Y-14137071D01*
X10905786Y-14165643D01*
X10891500Y-14179929D01*
X10862928Y-14194214D01*
X10834357Y-14194214D01*
X10805786Y-14179929D01*
X10791500Y-14165643D01*
X10777214Y-14137071D01*
X10762928Y-14079929D01*
X10762928Y-14008500D01*
X10777214Y-13951357D01*
X10791500Y-13922786D01*
X10805786Y-13908500D01*
X10834357Y-13894214D01*
X11120071Y-13894214D02*
X11148643Y-13894214D01*
X11177214Y-13908500D01*
X11191500Y-13922786D01*
X11205786Y-13951357D01*
X11220071Y-14008500D01*
X11220071Y-14079929D01*
X11205786Y-14137071D01*
X11191500Y-14165643D01*
X11177214Y-14179929D01*
X11148643Y-14194214D01*
X11120071Y-14194214D01*
X11091500Y-14179929D01*
X11077214Y-14165643D01*
X11062928Y-14137071D01*
X11048643Y-14079929D01*
X11048643Y-14008500D01*
X11062928Y-13951357D01*
X11077214Y-13922786D01*
X11091500Y-13908500D01*
X11120071Y-13894214D01*
X11348643Y-14194214D02*
X11348643Y-13994214D01*
X11348643Y-14022786D02*
X11362928Y-14008500D01*
X11391500Y-13994214D01*
X11434357Y-13994214D01*
X11462928Y-14008500D01*
X11477214Y-14037071D01*
X11477214Y-14194214D01*
X11477214Y-14037071D02*
X11491500Y-14008500D01*
X11520071Y-13994214D01*
X11562928Y-13994214D01*
X11591500Y-14008500D01*
X11605786Y-14037071D01*
X11605786Y-14194214D01*
X11748643Y-14194214D02*
X11748643Y-13994214D01*
X11748643Y-14022786D02*
X11762928Y-14008500D01*
X11791500Y-13994214D01*
X11834357Y-13994214D01*
X11862928Y-14008500D01*
X11877214Y-14037071D01*
X11877214Y-14194214D01*
X11877214Y-14037071D02*
X11891500Y-14008500D01*
X11920071Y-13994214D01*
X11962928Y-13994214D01*
X11991500Y-14008500D01*
X12005786Y-14037071D01*
X12005786Y-14194214D01*
X12591500Y-13879929D02*
X12334357Y-14265643D01*
X12977214Y-13894214D02*
X13005786Y-13894214D01*
X13034357Y-13908500D01*
X13048643Y-13922786D01*
X13062928Y-13951357D01*
X13077214Y-14008500D01*
X13077214Y-14079929D01*
X13062928Y-14137071D01*
X13048643Y-14165643D01*
X13034357Y-14179929D01*
X13005786Y-14194214D01*
X12977214Y-14194214D01*
X12948643Y-14179929D01*
X12934357Y-14165643D01*
X12920071Y-14137071D01*
X12905786Y-14079929D01*
X12905786Y-14008500D01*
X12920071Y-13951357D01*
X12934357Y-13922786D01*
X12948643Y-13908500D01*
X12977214Y-13894214D01*
X13205786Y-14165643D02*
X13220071Y-14179929D01*
X13205786Y-14194214D01*
X13191500Y-14179929D01*
X13205786Y-14165643D01*
X13205786Y-14194214D01*
X13405786Y-13894214D02*
X13434357Y-13894214D01*
X13462928Y-13908500D01*
X13477214Y-13922786D01*
X13491500Y-13951357D01*
X13505786Y-14008500D01*
X13505786Y-14079929D01*
X13491500Y-14137071D01*
X13477214Y-14165643D01*
X13462928Y-14179929D01*
X13434357Y-14194214D01*
X13405786Y-14194214D01*
X13377214Y-14179929D01*
X13362928Y-14165643D01*
X13348643Y-14137071D01*
X13334357Y-14079929D01*
X13334357Y-14008500D01*
X13348643Y-13951357D01*
X13362928Y-13922786D01*
X13377214Y-13908500D01*
X13405786Y-13894214D01*
X13605786Y-13894214D02*
X13791500Y-13894214D01*
X13691500Y-14008500D01*
X13734357Y-14008500D01*
X13762928Y-14022786D01*
X13777214Y-14037071D01*
X13791500Y-14065643D01*
X13791500Y-14137071D01*
X13777214Y-14165643D01*
X13762928Y-14179929D01*
X13734357Y-14194214D01*
X13648643Y-14194214D01*
X13620071Y-14179929D01*
X13605786Y-14165643D01*
X14077214Y-14194214D02*
X13905786Y-14194214D01*
X13991500Y-14194214D02*
X13991500Y-13894214D01*
X13962928Y-13937071D01*
X13934357Y-13965643D01*
X13905786Y-13979929D01*
X14348643Y-13894214D02*
X14205786Y-13894214D01*
X14191500Y-14037071D01*
X14205786Y-14022786D01*
X14234357Y-14008500D01*
X14305786Y-14008500D01*
X14334357Y-14022786D01*
X14348643Y-14037071D01*
X14362928Y-14065643D01*
X14362928Y-14137071D01*
X14348643Y-14165643D01*
X14334357Y-14179929D01*
X14305786Y-14194214D01*
X14234357Y-14194214D01*
X14205786Y-14179929D01*
X14191500Y-14165643D01*
X14477214Y-13894214D02*
X14477214Y-13951357D01*
X14591500Y-13894214D02*
X14591500Y-13951357D01*
X15034357Y-14308500D02*
X15020071Y-14294214D01*
X14991500Y-14251357D01*
X14977214Y-14222786D01*
X14962928Y-14179929D01*
X14948643Y-14108500D01*
X14948643Y-14051357D01*
X14962928Y-13979929D01*
X14977214Y-13937071D01*
X14991500Y-13908500D01*
X15020071Y-13865643D01*
X15034357Y-13851357D01*
X15134357Y-13922786D02*
X15148643Y-13908500D01*
X15177214Y-13894214D01*
X15248643Y-13894214D01*
X15277214Y-13908500D01*
X15291500Y-13922786D01*
X15305786Y-13951357D01*
X15305786Y-13979929D01*
X15291500Y-14022786D01*
X15120071Y-14194214D01*
X15305786Y-14194214D01*
X15477214Y-14022786D02*
X15448643Y-14008500D01*
X15434357Y-13994214D01*
X15420071Y-13965643D01*
X15420071Y-13951357D01*
X15434357Y-13922786D01*
X15448643Y-13908500D01*
X15477214Y-13894214D01*
X15534357Y-13894214D01*
X15562928Y-13908500D01*
X15577214Y-13922786D01*
X15591500Y-13951357D01*
X15591500Y-13965643D01*
X15577214Y-13994214D01*
X15562928Y-14008500D01*
X15534357Y-14022786D01*
X15477214Y-14022786D01*
X15448643Y-14037071D01*
X15434357Y-14051357D01*
X15420071Y-14079929D01*
X15420071Y-14137071D01*
X15434357Y-14165643D01*
X15448643Y-14179929D01*
X15477214Y-14194214D01*
X15534357Y-14194214D01*
X15562928Y-14179929D01*
X15577214Y-14165643D01*
X15591500Y-14137071D01*
X15591500Y-14079929D01*
X15577214Y-14051357D01*
X15562928Y-14037071D01*
X15534357Y-14022786D01*
X15948643Y-14194214D02*
X15948643Y-13894214D01*
X16077214Y-14194214D02*
X16077214Y-14037071D01*
X16062928Y-14008500D01*
X16034357Y-13994214D01*
X15991500Y-13994214D01*
X15962928Y-14008500D01*
X15948643Y-14022786D01*
X16262928Y-14194214D02*
X16234357Y-14179929D01*
X16220071Y-14165643D01*
X16205786Y-14137071D01*
X16205786Y-14051357D01*
X16220071Y-14022786D01*
X16234357Y-14008500D01*
X16262928Y-13994214D01*
X16305786Y-13994214D01*
X16334357Y-14008500D01*
X16348643Y-14022786D01*
X16362928Y-14051357D01*
X16362928Y-14137071D01*
X16348643Y-14165643D01*
X16334357Y-14179929D01*
X16305786Y-14194214D01*
X16262928Y-14194214D01*
X16534357Y-14194214D02*
X16505786Y-14179929D01*
X16491500Y-14151357D01*
X16491500Y-13894214D01*
X16762928Y-14179929D02*
X16734357Y-14194214D01*
X16677214Y-14194214D01*
X16648643Y-14179929D01*
X16634357Y-14151357D01*
X16634357Y-14037071D01*
X16648643Y-14008500D01*
X16677214Y-13994214D01*
X16734357Y-13994214D01*
X16762928Y-14008500D01*
X16777214Y-14037071D01*
X16777214Y-14065643D01*
X16634357Y-14094214D01*
X16891500Y-14179929D02*
X16920071Y-14194214D01*
X16977214Y-14194214D01*
X17005786Y-14179929D01*
X17020071Y-14151357D01*
X17020071Y-14137071D01*
X17005786Y-14108500D01*
X16977214Y-14094214D01*
X16934357Y-14094214D01*
X16905786Y-14079929D01*
X16891500Y-14051357D01*
X16891500Y-14037071D01*
X16905786Y-14008500D01*
X16934357Y-13994214D01*
X16977214Y-13994214D01*
X17005786Y-14008500D01*
X17120071Y-14308500D02*
X17134357Y-14294214D01*
X17162928Y-14251357D01*
X17177214Y-14222786D01*
X17191500Y-14179929D01*
X17205786Y-14108500D01*
X17205786Y-14051357D01*
X17191500Y-13979929D01*
X17177214Y-13937071D01*
X17162928Y-13908500D01*
X17134357Y-13865643D01*
X17120071Y-13851357D01*
X9732050Y-14410050D02*
X9732050Y-14498950D01*
X9687600Y-14454500D02*
X9776500Y-14454500D01*
X10120071Y-14290214D02*
X10148643Y-14290214D01*
X10177214Y-14304500D01*
X10191500Y-14318786D01*
X10205786Y-14347357D01*
X10220071Y-14404500D01*
X10220071Y-14475929D01*
X10205786Y-14533071D01*
X10191500Y-14561643D01*
X10177214Y-14575929D01*
X10148643Y-14590214D01*
X10120071Y-14590214D01*
X10091500Y-14575929D01*
X10077214Y-14561643D01*
X10062928Y-14533071D01*
X10048643Y-14475929D01*
X10048643Y-14404500D01*
X10062928Y-14347357D01*
X10077214Y-14318786D01*
X10091500Y-14304500D01*
X10120071Y-14290214D01*
X10348643Y-14561643D02*
X10362928Y-14575929D01*
X10348643Y-14590214D01*
X10334357Y-14575929D01*
X10348643Y-14561643D01*
X10348643Y-14590214D01*
X10534357Y-14418786D02*
X10505786Y-14404500D01*
X10491500Y-14390214D01*
X10477214Y-14361643D01*
X10477214Y-14347357D01*
X10491500Y-14318786D01*
X10505786Y-14304500D01*
X10534357Y-14290214D01*
X10591500Y-14290214D01*
X10620071Y-14304500D01*
X10634357Y-14318786D01*
X10648643Y-14347357D01*
X10648643Y-14361643D01*
X10634357Y-14390214D01*
X10620071Y-14404500D01*
X10591500Y-14418786D01*
X10534357Y-14418786D01*
X10505786Y-14433071D01*
X10491500Y-14447357D01*
X10477214Y-14475929D01*
X10477214Y-14533071D01*
X10491500Y-14561643D01*
X10505786Y-14575929D01*
X10534357Y-14590214D01*
X10591500Y-14590214D01*
X10620071Y-14575929D01*
X10634357Y-14561643D01*
X10648643Y-14533071D01*
X10648643Y-14475929D01*
X10634357Y-14447357D01*
X10620071Y-14433071D01*
X10591500Y-14418786D01*
X10820071Y-14418786D02*
X10791500Y-14404500D01*
X10777214Y-14390214D01*
X10762928Y-14361643D01*
X10762928Y-14347357D01*
X10777214Y-14318786D01*
X10791500Y-14304500D01*
X10820071Y-14290214D01*
X10877214Y-14290214D01*
X10905786Y-14304500D01*
X10920071Y-14318786D01*
X10934357Y-14347357D01*
X10934357Y-14361643D01*
X10920071Y-14390214D01*
X10905786Y-14404500D01*
X10877214Y-14418786D01*
X10820071Y-14418786D01*
X10791500Y-14433071D01*
X10777214Y-14447357D01*
X10762928Y-14475929D01*
X10762928Y-14533071D01*
X10777214Y-14561643D01*
X10791500Y-14575929D01*
X10820071Y-14590214D01*
X10877214Y-14590214D01*
X10905786Y-14575929D01*
X10920071Y-14561643D01*
X10934357Y-14533071D01*
X10934357Y-14475929D01*
X10920071Y-14447357D01*
X10905786Y-14433071D01*
X10877214Y-14418786D01*
X11077214Y-14590214D02*
X11134357Y-14590214D01*
X11162928Y-14575929D01*
X11177214Y-14561643D01*
X11205786Y-14518786D01*
X11220071Y-14461643D01*
X11220071Y-14347357D01*
X11205786Y-14318786D01*
X11191500Y-14304500D01*
X11162928Y-14290214D01*
X11105786Y-14290214D01*
X11077214Y-14304500D01*
X11062928Y-14318786D01*
X11048643Y-14347357D01*
X11048643Y-14418786D01*
X11062928Y-14447357D01*
X11077214Y-14461643D01*
X11105786Y-14475929D01*
X11162928Y-14475929D01*
X11191500Y-14461643D01*
X11205786Y-14447357D01*
X11220071Y-14418786D01*
X11348643Y-14590214D02*
X11348643Y-14390214D01*
X11348643Y-14418786D02*
X11362928Y-14404500D01*
X11391500Y-14390214D01*
X11434357Y-14390214D01*
X11462928Y-14404500D01*
X11477214Y-14433071D01*
X11477214Y-14590214D01*
X11477214Y-14433071D02*
X11491500Y-14404500D01*
X11520071Y-14390214D01*
X11562928Y-14390214D01*
X11591500Y-14404500D01*
X11605786Y-14433071D01*
X11605786Y-14590214D01*
X11748643Y-14590214D02*
X11748643Y-14390214D01*
X11748643Y-14418786D02*
X11762928Y-14404500D01*
X11791500Y-14390214D01*
X11834357Y-14390214D01*
X11862928Y-14404500D01*
X11877214Y-14433071D01*
X11877214Y-14590214D01*
X11877214Y-14433071D02*
X11891500Y-14404500D01*
X11920071Y-14390214D01*
X11962928Y-14390214D01*
X11991500Y-14404500D01*
X12005786Y-14433071D01*
X12005786Y-14590214D01*
X12591500Y-14275929D02*
X12334357Y-14661643D01*
X12977214Y-14290214D02*
X13005786Y-14290214D01*
X13034357Y-14304500D01*
X13048643Y-14318786D01*
X13062928Y-14347357D01*
X13077214Y-14404500D01*
X13077214Y-14475929D01*
X13062928Y-14533071D01*
X13048643Y-14561643D01*
X13034357Y-14575929D01*
X13005786Y-14590214D01*
X12977214Y-14590214D01*
X12948643Y-14575929D01*
X12934357Y-14561643D01*
X12920071Y-14533071D01*
X12905786Y-14475929D01*
X12905786Y-14404500D01*
X12920071Y-14347357D01*
X12934357Y-14318786D01*
X12948643Y-14304500D01*
X12977214Y-14290214D01*
X13205786Y-14561643D02*
X13220071Y-14575929D01*
X13205786Y-14590214D01*
X13191500Y-14575929D01*
X13205786Y-14561643D01*
X13205786Y-14590214D01*
X13405786Y-14290214D02*
X13434357Y-14290214D01*
X13462928Y-14304500D01*
X13477214Y-14318786D01*
X13491500Y-14347357D01*
X13505786Y-14404500D01*
X13505786Y-14475929D01*
X13491500Y-14533071D01*
X13477214Y-14561643D01*
X13462928Y-14575929D01*
X13434357Y-14590214D01*
X13405786Y-14590214D01*
X13377214Y-14575929D01*
X13362928Y-14561643D01*
X13348643Y-14533071D01*
X13334357Y-14475929D01*
X13334357Y-14404500D01*
X13348643Y-14347357D01*
X13362928Y-14318786D01*
X13377214Y-14304500D01*
X13405786Y-14290214D01*
X13605786Y-14290214D02*
X13791500Y-14290214D01*
X13691500Y-14404500D01*
X13734357Y-14404500D01*
X13762928Y-14418786D01*
X13777214Y-14433071D01*
X13791500Y-14461643D01*
X13791500Y-14533071D01*
X13777214Y-14561643D01*
X13762928Y-14575929D01*
X13734357Y-14590214D01*
X13648643Y-14590214D01*
X13620071Y-14575929D01*
X13605786Y-14561643D01*
X14062928Y-14290214D02*
X13920071Y-14290214D01*
X13905786Y-14433071D01*
X13920071Y-14418786D01*
X13948643Y-14404500D01*
X14020071Y-14404500D01*
X14048643Y-14418786D01*
X14062928Y-14433071D01*
X14077214Y-14461643D01*
X14077214Y-14533071D01*
X14062928Y-14561643D01*
X14048643Y-14575929D01*
X14020071Y-14590214D01*
X13948643Y-14590214D01*
X13920071Y-14575929D01*
X13905786Y-14561643D01*
X14262928Y-14290214D02*
X14291500Y-14290214D01*
X14320071Y-14304500D01*
X14334357Y-14318786D01*
X14348643Y-14347357D01*
X14362928Y-14404500D01*
X14362928Y-14475929D01*
X14348643Y-14533071D01*
X14334357Y-14561643D01*
X14320071Y-14575929D01*
X14291500Y-14590214D01*
X14262928Y-14590214D01*
X14234357Y-14575929D01*
X14220071Y-14561643D01*
X14205786Y-14533071D01*
X14191500Y-14475929D01*
X14191500Y-14404500D01*
X14205786Y-14347357D01*
X14220071Y-14318786D01*
X14234357Y-14304500D01*
X14262928Y-14290214D01*
X14477214Y-14290214D02*
X14477214Y-14347357D01*
X14591500Y-14290214D02*
X14591500Y-14347357D01*
X15034357Y-14704500D02*
X15020071Y-14690214D01*
X14991500Y-14647357D01*
X14977214Y-14618786D01*
X14962928Y-14575929D01*
X14948643Y-14504500D01*
X14948643Y-14447357D01*
X14962928Y-14375929D01*
X14977214Y-14333071D01*
X14991500Y-14304500D01*
X15020071Y-14261643D01*
X15034357Y-14247357D01*
X15305786Y-14590214D02*
X15134357Y-14590214D01*
X15220071Y-14590214D02*
X15220071Y-14290214D01*
X15191500Y-14333071D01*
X15162928Y-14361643D01*
X15134357Y-14375929D01*
X15420071Y-14318786D02*
X15434357Y-14304500D01*
X15462928Y-14290214D01*
X15534357Y-14290214D01*
X15562928Y-14304500D01*
X15577214Y-14318786D01*
X15591500Y-14347357D01*
X15591500Y-14375929D01*
X15577214Y-14418786D01*
X15405786Y-14590214D01*
X15591500Y-14590214D01*
X15948643Y-14590214D02*
X15948643Y-14290214D01*
X16077214Y-14590214D02*
X16077214Y-14433071D01*
X16062928Y-14404500D01*
X16034357Y-14390214D01*
X15991500Y-14390214D01*
X15962928Y-14404500D01*
X15948643Y-14418786D01*
X16262928Y-14590214D02*
X16234357Y-14575929D01*
X16220071Y-14561643D01*
X16205786Y-14533071D01*
X16205786Y-14447357D01*
X16220071Y-14418786D01*
X16234357Y-14404500D01*
X16262928Y-14390214D01*
X16305786Y-14390214D01*
X16334357Y-14404500D01*
X16348643Y-14418786D01*
X16362928Y-14447357D01*
X16362928Y-14533071D01*
X16348643Y-14561643D01*
X16334357Y-14575929D01*
X16305786Y-14590214D01*
X16262928Y-14590214D01*
X16534357Y-14590214D02*
X16505786Y-14575929D01*
X16491500Y-14547357D01*
X16491500Y-14290214D01*
X16762928Y-14575929D02*
X16734357Y-14590214D01*
X16677214Y-14590214D01*
X16648643Y-14575929D01*
X16634357Y-14547357D01*
X16634357Y-14433071D01*
X16648643Y-14404500D01*
X16677214Y-14390214D01*
X16734357Y-14390214D01*
X16762928Y-14404500D01*
X16777214Y-14433071D01*
X16777214Y-14461643D01*
X16634357Y-14490214D01*
X16891500Y-14575929D02*
X16920071Y-14590214D01*
X16977214Y-14590214D01*
X17005786Y-14575929D01*
X17020071Y-14547357D01*
X17020071Y-14533071D01*
X17005786Y-14504500D01*
X16977214Y-14490214D01*
X16934357Y-14490214D01*
X16905786Y-14475929D01*
X16891500Y-14447357D01*
X16891500Y-14433071D01*
X16905786Y-14404500D01*
X16934357Y-14390214D01*
X16977214Y-14390214D01*
X17005786Y-14404500D01*
X17120071Y-14704500D02*
X17134357Y-14690214D01*
X17162928Y-14647357D01*
X17177214Y-14618786D01*
X17191500Y-14575929D01*
X17205786Y-14504500D01*
X17205786Y-14447357D01*
X17191500Y-14375929D01*
X17177214Y-14333071D01*
X17162928Y-14304500D01*
X17134357Y-14261643D01*
X17120071Y-14247357D01*
X9763320Y-14882320D02*
X9763320Y-14818680D01*
X9699680Y-14818680D01*
X9699680Y-14882320D01*
X9763320Y-14882320D01*
X10120071Y-14686214D02*
X10148643Y-14686214D01*
X10177214Y-14700500D01*
X10191500Y-14714786D01*
X10205786Y-14743357D01*
X10220071Y-14800500D01*
X10220071Y-14871929D01*
X10205786Y-14929071D01*
X10191500Y-14957643D01*
X10177214Y-14971929D01*
X10148643Y-14986214D01*
X10120071Y-14986214D01*
X10091500Y-14971929D01*
X10077214Y-14957643D01*
X10062928Y-14929071D01*
X10048643Y-14871929D01*
X10048643Y-14800500D01*
X10062928Y-14743357D01*
X10077214Y-14714786D01*
X10091500Y-14700500D01*
X10120071Y-14686214D01*
X10348643Y-14957643D02*
X10362928Y-14971929D01*
X10348643Y-14986214D01*
X10334357Y-14971929D01*
X10348643Y-14957643D01*
X10348643Y-14986214D01*
X10505786Y-14986214D02*
X10562928Y-14986214D01*
X10591500Y-14971929D01*
X10605786Y-14957643D01*
X10634357Y-14914786D01*
X10648643Y-14857643D01*
X10648643Y-14743357D01*
X10634357Y-14714786D01*
X10620071Y-14700500D01*
X10591500Y-14686214D01*
X10534357Y-14686214D01*
X10505786Y-14700500D01*
X10491500Y-14714786D01*
X10477214Y-14743357D01*
X10477214Y-14814786D01*
X10491500Y-14843357D01*
X10505786Y-14857643D01*
X10534357Y-14871929D01*
X10591500Y-14871929D01*
X10620071Y-14857643D01*
X10634357Y-14843357D01*
X10648643Y-14814786D01*
X10834357Y-14686214D02*
X10862928Y-14686214D01*
X10891500Y-14700500D01*
X10905786Y-14714786D01*
X10920071Y-14743357D01*
X10934357Y-14800500D01*
X10934357Y-14871929D01*
X10920071Y-14929071D01*
X10905786Y-14957643D01*
X10891500Y-14971929D01*
X10862928Y-14986214D01*
X10834357Y-14986214D01*
X10805786Y-14971929D01*
X10791500Y-14957643D01*
X10777214Y-14929071D01*
X10762928Y-14871929D01*
X10762928Y-14800500D01*
X10777214Y-14743357D01*
X10791500Y-14714786D01*
X10805786Y-14700500D01*
X10834357Y-14686214D01*
X11120071Y-14686214D02*
X11148643Y-14686214D01*
X11177214Y-14700500D01*
X11191500Y-14714786D01*
X11205786Y-14743357D01*
X11220071Y-14800500D01*
X11220071Y-14871929D01*
X11205786Y-14929071D01*
X11191500Y-14957643D01*
X11177214Y-14971929D01*
X11148643Y-14986214D01*
X11120071Y-14986214D01*
X11091500Y-14971929D01*
X11077214Y-14957643D01*
X11062928Y-14929071D01*
X11048643Y-14871929D01*
X11048643Y-14800500D01*
X11062928Y-14743357D01*
X11077214Y-14714786D01*
X11091500Y-14700500D01*
X11120071Y-14686214D01*
X11348643Y-14986214D02*
X11348643Y-14786214D01*
X11348643Y-14814786D02*
X11362928Y-14800500D01*
X11391500Y-14786214D01*
X11434357Y-14786214D01*
X11462928Y-14800500D01*
X11477214Y-14829071D01*
X11477214Y-14986214D01*
X11477214Y-14829071D02*
X11491500Y-14800500D01*
X11520071Y-14786214D01*
X11562928Y-14786214D01*
X11591500Y-14800500D01*
X11605786Y-14829071D01*
X11605786Y-14986214D01*
X11748643Y-14986214D02*
X11748643Y-14786214D01*
X11748643Y-14814786D02*
X11762928Y-14800500D01*
X11791500Y-14786214D01*
X11834357Y-14786214D01*
X11862928Y-14800500D01*
X11877214Y-14829071D01*
X11877214Y-14986214D01*
X11877214Y-14829071D02*
X11891500Y-14800500D01*
X11920071Y-14786214D01*
X11962928Y-14786214D01*
X11991500Y-14800500D01*
X12005786Y-14829071D01*
X12005786Y-14986214D01*
X12591500Y-14671929D02*
X12334357Y-15057643D01*
X12977214Y-14686214D02*
X13005786Y-14686214D01*
X13034357Y-14700500D01*
X13048643Y-14714786D01*
X13062928Y-14743357D01*
X13077214Y-14800500D01*
X13077214Y-14871929D01*
X13062928Y-14929071D01*
X13048643Y-14957643D01*
X13034357Y-14971929D01*
X13005786Y-14986214D01*
X12977214Y-14986214D01*
X12948643Y-14971929D01*
X12934357Y-14957643D01*
X12920071Y-14929071D01*
X12905786Y-14871929D01*
X12905786Y-14800500D01*
X12920071Y-14743357D01*
X12934357Y-14714786D01*
X12948643Y-14700500D01*
X12977214Y-14686214D01*
X13205786Y-14957643D02*
X13220071Y-14971929D01*
X13205786Y-14986214D01*
X13191500Y-14971929D01*
X13205786Y-14957643D01*
X13205786Y-14986214D01*
X13405786Y-14686214D02*
X13434357Y-14686214D01*
X13462928Y-14700500D01*
X13477214Y-14714786D01*
X13491500Y-14743357D01*
X13505786Y-14800500D01*
X13505786Y-14871929D01*
X13491500Y-14929071D01*
X13477214Y-14957643D01*
X13462928Y-14971929D01*
X13434357Y-14986214D01*
X13405786Y-14986214D01*
X13377214Y-14971929D01*
X13362928Y-14957643D01*
X13348643Y-14929071D01*
X13334357Y-14871929D01*
X13334357Y-14800500D01*
X13348643Y-14743357D01*
X13362928Y-14714786D01*
X13377214Y-14700500D01*
X13405786Y-14686214D01*
X13605786Y-14686214D02*
X13791500Y-14686214D01*
X13691500Y-14800500D01*
X13734357Y-14800500D01*
X13762928Y-14814786D01*
X13777214Y-14829071D01*
X13791500Y-14857643D01*
X13791500Y-14929071D01*
X13777214Y-14957643D01*
X13762928Y-14971929D01*
X13734357Y-14986214D01*
X13648643Y-14986214D01*
X13620071Y-14971929D01*
X13605786Y-14957643D01*
X14062928Y-14686214D02*
X13920071Y-14686214D01*
X13905786Y-14829071D01*
X13920071Y-14814786D01*
X13948643Y-14800500D01*
X14020071Y-14800500D01*
X14048643Y-14814786D01*
X14062928Y-14829071D01*
X14077214Y-14857643D01*
X14077214Y-14929071D01*
X14062928Y-14957643D01*
X14048643Y-14971929D01*
X14020071Y-14986214D01*
X13948643Y-14986214D01*
X13920071Y-14971929D01*
X13905786Y-14957643D01*
X14334357Y-14786214D02*
X14334357Y-14986214D01*
X14262928Y-14671929D02*
X14191500Y-14886214D01*
X14377214Y-14886214D01*
X14477214Y-14686214D02*
X14477214Y-14743357D01*
X14591500Y-14686214D02*
X14591500Y-14743357D01*
X15034357Y-15100500D02*
X15020071Y-15086214D01*
X14991500Y-15043357D01*
X14977214Y-15014786D01*
X14962928Y-14971929D01*
X14948643Y-14900500D01*
X14948643Y-14843357D01*
X14962928Y-14771929D01*
X14977214Y-14729071D01*
X14991500Y-14700500D01*
X15020071Y-14657643D01*
X15034357Y-14643357D01*
X15191500Y-14814786D02*
X15162928Y-14800500D01*
X15148643Y-14786214D01*
X15134357Y-14757643D01*
X15134357Y-14743357D01*
X15148643Y-14714786D01*
X15162928Y-14700500D01*
X15191500Y-14686214D01*
X15248643Y-14686214D01*
X15277214Y-14700500D01*
X15291500Y-14714786D01*
X15305786Y-14743357D01*
X15305786Y-14757643D01*
X15291500Y-14786214D01*
X15277214Y-14800500D01*
X15248643Y-14814786D01*
X15191500Y-14814786D01*
X15162928Y-14829071D01*
X15148643Y-14843357D01*
X15134357Y-14871929D01*
X15134357Y-14929071D01*
X15148643Y-14957643D01*
X15162928Y-14971929D01*
X15191500Y-14986214D01*
X15248643Y-14986214D01*
X15277214Y-14971929D01*
X15291500Y-14957643D01*
X15305786Y-14929071D01*
X15305786Y-14871929D01*
X15291500Y-14843357D01*
X15277214Y-14829071D01*
X15248643Y-14814786D01*
X15662928Y-14986214D02*
X15662928Y-14686214D01*
X15791500Y-14986214D02*
X15791500Y-14829071D01*
X15777214Y-14800500D01*
X15748643Y-14786214D01*
X15705786Y-14786214D01*
X15677214Y-14800500D01*
X15662928Y-14814786D01*
X15977214Y-14986214D02*
X15948643Y-14971929D01*
X15934357Y-14957643D01*
X15920071Y-14929071D01*
X15920071Y-14843357D01*
X15934357Y-14814786D01*
X15948643Y-14800500D01*
X15977214Y-14786214D01*
X16020071Y-14786214D01*
X16048643Y-14800500D01*
X16062928Y-14814786D01*
X16077214Y-14843357D01*
X16077214Y-14929071D01*
X16062928Y-14957643D01*
X16048643Y-14971929D01*
X16020071Y-14986214D01*
X15977214Y-14986214D01*
X16248643Y-14986214D02*
X16220071Y-14971929D01*
X16205786Y-14943357D01*
X16205786Y-14686214D01*
X16477214Y-14971929D02*
X16448643Y-14986214D01*
X16391500Y-14986214D01*
X16362928Y-14971929D01*
X16348643Y-14943357D01*
X16348643Y-14829071D01*
X16362928Y-14800500D01*
X16391500Y-14786214D01*
X16448643Y-14786214D01*
X16477214Y-14800500D01*
X16491500Y-14829071D01*
X16491500Y-14857643D01*
X16348643Y-14886214D01*
X16605786Y-14971929D02*
X16634357Y-14986214D01*
X16691500Y-14986214D01*
X16720071Y-14971929D01*
X16734357Y-14943357D01*
X16734357Y-14929071D01*
X16720071Y-14900500D01*
X16691500Y-14886214D01*
X16648643Y-14886214D01*
X16620071Y-14871929D01*
X16605786Y-14843357D01*
X16605786Y-14829071D01*
X16620071Y-14800500D01*
X16648643Y-14786214D01*
X16691500Y-14786214D01*
X16720071Y-14800500D01*
X16834357Y-15100500D02*
X16848643Y-15086214D01*
X16877214Y-15043357D01*
X16891500Y-15014786D01*
X16905786Y-14971929D01*
X16920071Y-14900500D01*
X16920071Y-14843357D01*
X16905786Y-14771929D01*
X16891500Y-14729071D01*
X16877214Y-14700500D01*
X16848643Y-14657643D01*
X16834357Y-14643357D01*
X9726500Y-15296500D02*
X9776500Y-15246500D01*
X9726500Y-15196500D01*
X9676500Y-15246500D01*
X9726500Y-15296500D01*
X10220071Y-15382214D02*
X10048643Y-15382214D01*
X10134357Y-15382214D02*
X10134357Y-15082214D01*
X10105786Y-15125071D01*
X10077214Y-15153643D01*
X10048643Y-15167929D01*
X10348643Y-15353643D02*
X10362928Y-15367929D01*
X10348643Y-15382214D01*
X10334357Y-15367929D01*
X10348643Y-15353643D01*
X10348643Y-15382214D01*
X10548643Y-15082214D02*
X10577214Y-15082214D01*
X10605786Y-15096500D01*
X10620071Y-15110786D01*
X10634357Y-15139357D01*
X10648643Y-15196500D01*
X10648643Y-15267929D01*
X10634357Y-15325071D01*
X10620071Y-15353643D01*
X10605786Y-15367929D01*
X10577214Y-15382214D01*
X10548643Y-15382214D01*
X10520071Y-15367929D01*
X10505786Y-15353643D01*
X10491500Y-15325071D01*
X10477214Y-15267929D01*
X10477214Y-15196500D01*
X10491500Y-15139357D01*
X10505786Y-15110786D01*
X10520071Y-15096500D01*
X10548643Y-15082214D01*
X10834357Y-15082214D02*
X10862928Y-15082214D01*
X10891500Y-15096500D01*
X10905786Y-15110786D01*
X10920071Y-15139357D01*
X10934357Y-15196500D01*
X10934357Y-15267929D01*
X10920071Y-15325071D01*
X10905786Y-15353643D01*
X10891500Y-15367929D01*
X10862928Y-15382214D01*
X10834357Y-15382214D01*
X10805786Y-15367929D01*
X10791500Y-15353643D01*
X10777214Y-15325071D01*
X10762928Y-15267929D01*
X10762928Y-15196500D01*
X10777214Y-15139357D01*
X10791500Y-15110786D01*
X10805786Y-15096500D01*
X10834357Y-15082214D01*
X11120071Y-15082214D02*
X11148643Y-15082214D01*
X11177214Y-15096500D01*
X11191500Y-15110786D01*
X11205786Y-15139357D01*
X11220071Y-15196500D01*
X11220071Y-15267929D01*
X11205786Y-15325071D01*
X11191500Y-15353643D01*
X11177214Y-15367929D01*
X11148643Y-15382214D01*
X11120071Y-15382214D01*
X11091500Y-15367929D01*
X11077214Y-15353643D01*
X11062928Y-15325071D01*
X11048643Y-15267929D01*
X11048643Y-15196500D01*
X11062928Y-15139357D01*
X11077214Y-15110786D01*
X11091500Y-15096500D01*
X11120071Y-15082214D01*
X11348643Y-15382214D02*
X11348643Y-15182214D01*
X11348643Y-15210786D02*
X11362928Y-15196500D01*
X11391500Y-15182214D01*
X11434357Y-15182214D01*
X11462928Y-15196500D01*
X11477214Y-15225071D01*
X11477214Y-15382214D01*
X11477214Y-15225071D02*
X11491500Y-15196500D01*
X11520071Y-15182214D01*
X11562928Y-15182214D01*
X11591500Y-15196500D01*
X11605786Y-15225071D01*
X11605786Y-15382214D01*
X11748643Y-15382214D02*
X11748643Y-15182214D01*
X11748643Y-15210786D02*
X11762928Y-15196500D01*
X11791500Y-15182214D01*
X11834357Y-15182214D01*
X11862928Y-15196500D01*
X11877214Y-15225071D01*
X11877214Y-15382214D01*
X11877214Y-15225071D02*
X11891500Y-15196500D01*
X11920071Y-15182214D01*
X11962928Y-15182214D01*
X11991500Y-15196500D01*
X12005786Y-15225071D01*
X12005786Y-15382214D01*
X12591500Y-15067929D02*
X12334357Y-15453643D01*
X12977214Y-15082214D02*
X13005786Y-15082214D01*
X13034357Y-15096500D01*
X13048643Y-15110786D01*
X13062928Y-15139357D01*
X13077214Y-15196500D01*
X13077214Y-15267929D01*
X13062928Y-15325071D01*
X13048643Y-15353643D01*
X13034357Y-15367929D01*
X13005786Y-15382214D01*
X12977214Y-15382214D01*
X12948643Y-15367929D01*
X12934357Y-15353643D01*
X12920071Y-15325071D01*
X12905786Y-15267929D01*
X12905786Y-15196500D01*
X12920071Y-15139357D01*
X12934357Y-15110786D01*
X12948643Y-15096500D01*
X12977214Y-15082214D01*
X13205786Y-15353643D02*
X13220071Y-15367929D01*
X13205786Y-15382214D01*
X13191500Y-15367929D01*
X13205786Y-15353643D01*
X13205786Y-15382214D01*
X13405786Y-15082214D02*
X13434357Y-15082214D01*
X13462928Y-15096500D01*
X13477214Y-15110786D01*
X13491500Y-15139357D01*
X13505786Y-15196500D01*
X13505786Y-15267929D01*
X13491500Y-15325071D01*
X13477214Y-15353643D01*
X13462928Y-15367929D01*
X13434357Y-15382214D01*
X13405786Y-15382214D01*
X13377214Y-15367929D01*
X13362928Y-15353643D01*
X13348643Y-15325071D01*
X13334357Y-15267929D01*
X13334357Y-15196500D01*
X13348643Y-15139357D01*
X13362928Y-15110786D01*
X13377214Y-15096500D01*
X13405786Y-15082214D01*
X13605786Y-15082214D02*
X13791500Y-15082214D01*
X13691500Y-15196500D01*
X13734357Y-15196500D01*
X13762928Y-15210786D01*
X13777214Y-15225071D01*
X13791500Y-15253643D01*
X13791500Y-15325071D01*
X13777214Y-15353643D01*
X13762928Y-15367929D01*
X13734357Y-15382214D01*
X13648643Y-15382214D01*
X13620071Y-15367929D01*
X13605786Y-15353643D01*
X13934357Y-15382214D02*
X13991500Y-15382214D01*
X14020071Y-15367929D01*
X14034357Y-15353643D01*
X14062928Y-15310786D01*
X14077214Y-15253643D01*
X14077214Y-15139357D01*
X14062928Y-15110786D01*
X14048643Y-15096500D01*
X14020071Y-15082214D01*
X13962928Y-15082214D01*
X13934357Y-15096500D01*
X13920071Y-15110786D01*
X13905786Y-15139357D01*
X13905786Y-15210786D01*
X13920071Y-15239357D01*
X13934357Y-15253643D01*
X13962928Y-15267929D01*
X14020071Y-15267929D01*
X14048643Y-15253643D01*
X14062928Y-15239357D01*
X14077214Y-15210786D01*
X14334357Y-15182214D02*
X14334357Y-15382214D01*
X14262928Y-15067929D02*
X14191500Y-15282214D01*
X14377214Y-15282214D01*
X14477214Y-15082214D02*
X14477214Y-15139357D01*
X14591500Y-15082214D02*
X14591500Y-15139357D01*
X15034357Y-15496500D02*
X15020071Y-15482214D01*
X14991500Y-15439357D01*
X14977214Y-15410786D01*
X14962928Y-15367929D01*
X14948643Y-15296500D01*
X14948643Y-15239357D01*
X14962928Y-15167929D01*
X14977214Y-15125071D01*
X14991500Y-15096500D01*
X15020071Y-15053643D01*
X15034357Y-15039357D01*
X15305786Y-15382214D02*
X15134357Y-15382214D01*
X15220071Y-15382214D02*
X15220071Y-15082214D01*
X15191500Y-15125071D01*
X15162928Y-15153643D01*
X15134357Y-15167929D01*
X15562928Y-15182214D02*
X15562928Y-15382214D01*
X15491500Y-15067929D02*
X15420071Y-15282214D01*
X15605786Y-15282214D01*
X15948643Y-15382214D02*
X15948643Y-15082214D01*
X16077214Y-15382214D02*
X16077214Y-15225071D01*
X16062928Y-15196500D01*
X16034357Y-15182214D01*
X15991500Y-15182214D01*
X15962928Y-15196500D01*
X15948643Y-15210786D01*
X16262928Y-15382214D02*
X16234357Y-15367929D01*
X16220071Y-15353643D01*
X16205786Y-15325071D01*
X16205786Y-15239357D01*
X16220071Y-15210786D01*
X16234357Y-15196500D01*
X16262928Y-15182214D01*
X16305786Y-15182214D01*
X16334357Y-15196500D01*
X16348643Y-15210786D01*
X16362928Y-15239357D01*
X16362928Y-15325071D01*
X16348643Y-15353643D01*
X16334357Y-15367929D01*
X16305786Y-15382214D01*
X16262928Y-15382214D01*
X16534357Y-15382214D02*
X16505786Y-15367929D01*
X16491500Y-15339357D01*
X16491500Y-15082214D01*
X16762928Y-15367929D02*
X16734357Y-15382214D01*
X16677214Y-15382214D01*
X16648643Y-15367929D01*
X16634357Y-15339357D01*
X16634357Y-15225071D01*
X16648643Y-15196500D01*
X16677214Y-15182214D01*
X16734357Y-15182214D01*
X16762928Y-15196500D01*
X16777214Y-15225071D01*
X16777214Y-15253643D01*
X16634357Y-15282214D01*
X16891500Y-15367929D02*
X16920071Y-15382214D01*
X16977214Y-15382214D01*
X17005786Y-15367929D01*
X17020071Y-15339357D01*
X17020071Y-15325071D01*
X17005786Y-15296500D01*
X16977214Y-15282214D01*
X16934357Y-15282214D01*
X16905786Y-15267929D01*
X16891500Y-15239357D01*
X16891500Y-15225071D01*
X16905786Y-15196500D01*
X16934357Y-15182214D01*
X16977214Y-15182214D01*
X17005786Y-15196500D01*
X17120071Y-15496500D02*
X17134357Y-15482214D01*
X17162928Y-15439357D01*
X17177214Y-15410786D01*
X17191500Y-15367929D01*
X17205786Y-15296500D01*
X17205786Y-15239357D01*
X17191500Y-15167929D01*
X17177214Y-15125071D01*
X17162928Y-15096500D01*
X17134357Y-15053643D01*
X17120071Y-15039357D01*
X9636800Y-15572650D02*
X9776500Y-15712350D01*
X9776500Y-15572650D02*
X9636800Y-15712350D01*
X9776500Y-15642500D02*
G75*
G03*
X9776500Y-15642500I-69850J0D01*
G01*
X10220071Y-15778214D02*
X10048643Y-15778214D01*
X10134357Y-15778214D02*
X10134357Y-15478214D01*
X10105786Y-15521071D01*
X10077214Y-15549643D01*
X10048643Y-15563929D01*
X10348643Y-15749643D02*
X10362928Y-15763929D01*
X10348643Y-15778214D01*
X10334357Y-15763929D01*
X10348643Y-15749643D01*
X10348643Y-15778214D01*
X10462928Y-15478214D02*
X10648643Y-15478214D01*
X10548643Y-15592500D01*
X10591500Y-15592500D01*
X10620071Y-15606786D01*
X10634357Y-15621071D01*
X10648643Y-15649643D01*
X10648643Y-15721071D01*
X10634357Y-15749643D01*
X10620071Y-15763929D01*
X10591500Y-15778214D01*
X10505786Y-15778214D01*
X10477214Y-15763929D01*
X10462928Y-15749643D01*
X10791500Y-15778214D02*
X10848643Y-15778214D01*
X10877214Y-15763929D01*
X10891500Y-15749643D01*
X10920071Y-15706786D01*
X10934357Y-15649643D01*
X10934357Y-15535357D01*
X10920071Y-15506786D01*
X10905786Y-15492500D01*
X10877214Y-15478214D01*
X10820071Y-15478214D01*
X10791500Y-15492500D01*
X10777214Y-15506786D01*
X10762928Y-15535357D01*
X10762928Y-15606786D01*
X10777214Y-15635357D01*
X10791500Y-15649643D01*
X10820071Y-15663929D01*
X10877214Y-15663929D01*
X10905786Y-15649643D01*
X10920071Y-15635357D01*
X10934357Y-15606786D01*
X11034357Y-15478214D02*
X11234357Y-15478214D01*
X11105786Y-15778214D01*
X11348643Y-15778214D02*
X11348643Y-15578214D01*
X11348643Y-15606786D02*
X11362928Y-15592500D01*
X11391500Y-15578214D01*
X11434357Y-15578214D01*
X11462928Y-15592500D01*
X11477214Y-15621071D01*
X11477214Y-15778214D01*
X11477214Y-15621071D02*
X11491500Y-15592500D01*
X11520071Y-15578214D01*
X11562928Y-15578214D01*
X11591500Y-15592500D01*
X11605786Y-15621071D01*
X11605786Y-15778214D01*
X11748643Y-15778214D02*
X11748643Y-15578214D01*
X11748643Y-15606786D02*
X11762928Y-15592500D01*
X11791500Y-15578214D01*
X11834357Y-15578214D01*
X11862928Y-15592500D01*
X11877214Y-15621071D01*
X11877214Y-15778214D01*
X11877214Y-15621071D02*
X11891500Y-15592500D01*
X11920071Y-15578214D01*
X11962928Y-15578214D01*
X11991500Y-15592500D01*
X12005786Y-15621071D01*
X12005786Y-15778214D01*
X12591500Y-15463929D02*
X12334357Y-15849643D01*
X12977214Y-15478214D02*
X13005786Y-15478214D01*
X13034357Y-15492500D01*
X13048643Y-15506786D01*
X13062928Y-15535357D01*
X13077214Y-15592500D01*
X13077214Y-15663929D01*
X13062928Y-15721071D01*
X13048643Y-15749643D01*
X13034357Y-15763929D01*
X13005786Y-15778214D01*
X12977214Y-15778214D01*
X12948643Y-15763929D01*
X12934357Y-15749643D01*
X12920071Y-15721071D01*
X12905786Y-15663929D01*
X12905786Y-15592500D01*
X12920071Y-15535357D01*
X12934357Y-15506786D01*
X12948643Y-15492500D01*
X12977214Y-15478214D01*
X13205786Y-15749643D02*
X13220071Y-15763929D01*
X13205786Y-15778214D01*
X13191500Y-15763929D01*
X13205786Y-15749643D01*
X13205786Y-15778214D01*
X13405786Y-15478214D02*
X13434357Y-15478214D01*
X13462928Y-15492500D01*
X13477214Y-15506786D01*
X13491500Y-15535357D01*
X13505786Y-15592500D01*
X13505786Y-15663929D01*
X13491500Y-15721071D01*
X13477214Y-15749643D01*
X13462928Y-15763929D01*
X13434357Y-15778214D01*
X13405786Y-15778214D01*
X13377214Y-15763929D01*
X13362928Y-15749643D01*
X13348643Y-15721071D01*
X13334357Y-15663929D01*
X13334357Y-15592500D01*
X13348643Y-15535357D01*
X13362928Y-15506786D01*
X13377214Y-15492500D01*
X13405786Y-15478214D01*
X13777214Y-15478214D02*
X13634357Y-15478214D01*
X13620071Y-15621071D01*
X13634357Y-15606786D01*
X13662928Y-15592500D01*
X13734357Y-15592500D01*
X13762928Y-15606786D01*
X13777214Y-15621071D01*
X13791500Y-15649643D01*
X13791500Y-15721071D01*
X13777214Y-15749643D01*
X13762928Y-15763929D01*
X13734357Y-15778214D01*
X13662928Y-15778214D01*
X13634357Y-15763929D01*
X13620071Y-15749643D01*
X14062928Y-15478214D02*
X13920071Y-15478214D01*
X13905786Y-15621071D01*
X13920071Y-15606786D01*
X13948643Y-15592500D01*
X14020071Y-15592500D01*
X14048643Y-15606786D01*
X14062928Y-15621071D01*
X14077214Y-15649643D01*
X14077214Y-15721071D01*
X14062928Y-15749643D01*
X14048643Y-15763929D01*
X14020071Y-15778214D01*
X13948643Y-15778214D01*
X13920071Y-15763929D01*
X13905786Y-15749643D01*
X14262928Y-15478214D02*
X14291500Y-15478214D01*
X14320071Y-15492500D01*
X14334357Y-15506786D01*
X14348643Y-15535357D01*
X14362928Y-15592500D01*
X14362928Y-15663929D01*
X14348643Y-15721071D01*
X14334357Y-15749643D01*
X14320071Y-15763929D01*
X14291500Y-15778214D01*
X14262928Y-15778214D01*
X14234357Y-15763929D01*
X14220071Y-15749643D01*
X14205786Y-15721071D01*
X14191500Y-15663929D01*
X14191500Y-15592500D01*
X14205786Y-15535357D01*
X14220071Y-15506786D01*
X14234357Y-15492500D01*
X14262928Y-15478214D01*
X14477214Y-15478214D02*
X14477214Y-15535357D01*
X14591500Y-15478214D02*
X14591500Y-15535357D01*
X15034357Y-15892500D02*
X15020071Y-15878214D01*
X14991500Y-15835357D01*
X14977214Y-15806786D01*
X14962928Y-15763929D01*
X14948643Y-15692500D01*
X14948643Y-15635357D01*
X14962928Y-15563929D01*
X14977214Y-15521071D01*
X14991500Y-15492500D01*
X15020071Y-15449643D01*
X15034357Y-15435357D01*
X15191500Y-15606786D02*
X15162928Y-15592500D01*
X15148643Y-15578214D01*
X15134357Y-15549643D01*
X15134357Y-15535357D01*
X15148643Y-15506786D01*
X15162928Y-15492500D01*
X15191500Y-15478214D01*
X15248643Y-15478214D01*
X15277214Y-15492500D01*
X15291500Y-15506786D01*
X15305786Y-15535357D01*
X15305786Y-15549643D01*
X15291500Y-15578214D01*
X15277214Y-15592500D01*
X15248643Y-15606786D01*
X15191500Y-15606786D01*
X15162928Y-15621071D01*
X15148643Y-15635357D01*
X15134357Y-15663929D01*
X15134357Y-15721071D01*
X15148643Y-15749643D01*
X15162928Y-15763929D01*
X15191500Y-15778214D01*
X15248643Y-15778214D01*
X15277214Y-15763929D01*
X15291500Y-15749643D01*
X15305786Y-15721071D01*
X15305786Y-15663929D01*
X15291500Y-15635357D01*
X15277214Y-15621071D01*
X15248643Y-15606786D01*
X15662928Y-15778214D02*
X15662928Y-15478214D01*
X15791500Y-15778214D02*
X15791500Y-15621071D01*
X15777214Y-15592500D01*
X15748643Y-15578214D01*
X15705786Y-15578214D01*
X15677214Y-15592500D01*
X15662928Y-15606786D01*
X15977214Y-15778214D02*
X15948643Y-15763929D01*
X15934357Y-15749643D01*
X15920071Y-15721071D01*
X15920071Y-15635357D01*
X15934357Y-15606786D01*
X15948643Y-15592500D01*
X15977214Y-15578214D01*
X16020071Y-15578214D01*
X16048643Y-15592500D01*
X16062928Y-15606786D01*
X16077214Y-15635357D01*
X16077214Y-15721071D01*
X16062928Y-15749643D01*
X16048643Y-15763929D01*
X16020071Y-15778214D01*
X15977214Y-15778214D01*
X16248643Y-15778214D02*
X16220071Y-15763929D01*
X16205786Y-15735357D01*
X16205786Y-15478214D01*
X16477214Y-15763929D02*
X16448643Y-15778214D01*
X16391500Y-15778214D01*
X16362928Y-15763929D01*
X16348643Y-15735357D01*
X16348643Y-15621071D01*
X16362928Y-15592500D01*
X16391500Y-15578214D01*
X16448643Y-15578214D01*
X16477214Y-15592500D01*
X16491500Y-15621071D01*
X16491500Y-15649643D01*
X16348643Y-15678214D01*
X16605786Y-15763929D02*
X16634357Y-15778214D01*
X16691500Y-15778214D01*
X16720071Y-15763929D01*
X16734357Y-15735357D01*
X16734357Y-15721071D01*
X16720071Y-15692500D01*
X16691500Y-15678214D01*
X16648643Y-15678214D01*
X16620071Y-15663929D01*
X16605786Y-15635357D01*
X16605786Y-15621071D01*
X16620071Y-15592500D01*
X16648643Y-15578214D01*
X16691500Y-15578214D01*
X16720071Y-15592500D01*
X16834357Y-15892500D02*
X16848643Y-15878214D01*
X16877214Y-15835357D01*
X16891500Y-15806786D01*
X16905786Y-15763929D01*
X16920071Y-15692500D01*
X16920071Y-15635357D01*
X16905786Y-15563929D01*
X16891500Y-15521071D01*
X16877214Y-15492500D01*
X16848643Y-15449643D01*
X16834357Y-15435357D01*
X9591500Y-15946000D02*
X9776500Y-16131000D01*
X9776500Y-15946000D02*
X9591500Y-16131000D01*
X9684000Y-15946000D02*
X9684000Y-16131000D01*
X9591500Y-16038500D02*
X9776500Y-16038500D01*
X10220071Y-16174214D02*
X10048643Y-16174214D01*
X10134357Y-16174214D02*
X10134357Y-15874214D01*
X10105786Y-15917071D01*
X10077214Y-15945643D01*
X10048643Y-15959929D01*
X10348643Y-16145643D02*
X10362928Y-16159929D01*
X10348643Y-16174214D01*
X10334357Y-16159929D01*
X10348643Y-16145643D01*
X10348643Y-16174214D01*
X10534357Y-16002786D02*
X10505786Y-15988500D01*
X10491500Y-15974214D01*
X10477214Y-15945643D01*
X10477214Y-15931357D01*
X10491500Y-15902786D01*
X10505786Y-15888500D01*
X10534357Y-15874214D01*
X10591500Y-15874214D01*
X10620071Y-15888500D01*
X10634357Y-15902786D01*
X10648643Y-15931357D01*
X10648643Y-15945643D01*
X10634357Y-15974214D01*
X10620071Y-15988500D01*
X10591500Y-16002786D01*
X10534357Y-16002786D01*
X10505786Y-16017071D01*
X10491500Y-16031357D01*
X10477214Y-16059929D01*
X10477214Y-16117071D01*
X10491500Y-16145643D01*
X10505786Y-16159929D01*
X10534357Y-16174214D01*
X10591500Y-16174214D01*
X10620071Y-16159929D01*
X10634357Y-16145643D01*
X10648643Y-16117071D01*
X10648643Y-16059929D01*
X10634357Y-16031357D01*
X10620071Y-16017071D01*
X10591500Y-16002786D01*
X10920071Y-15874214D02*
X10777214Y-15874214D01*
X10762928Y-16017071D01*
X10777214Y-16002786D01*
X10805786Y-15988500D01*
X10877214Y-15988500D01*
X10905786Y-16002786D01*
X10920071Y-16017071D01*
X10934357Y-16045643D01*
X10934357Y-16117071D01*
X10920071Y-16145643D01*
X10905786Y-16159929D01*
X10877214Y-16174214D01*
X10805786Y-16174214D01*
X10777214Y-16159929D01*
X10762928Y-16145643D01*
X11120071Y-15874214D02*
X11148643Y-15874214D01*
X11177214Y-15888500D01*
X11191500Y-15902786D01*
X11205786Y-15931357D01*
X11220071Y-15988500D01*
X11220071Y-16059929D01*
X11205786Y-16117071D01*
X11191500Y-16145643D01*
X11177214Y-16159929D01*
X11148643Y-16174214D01*
X11120071Y-16174214D01*
X11091500Y-16159929D01*
X11077214Y-16145643D01*
X11062928Y-16117071D01*
X11048643Y-16059929D01*
X11048643Y-15988500D01*
X11062928Y-15931357D01*
X11077214Y-15902786D01*
X11091500Y-15888500D01*
X11120071Y-15874214D01*
X11348643Y-16174214D02*
X11348643Y-15974214D01*
X11348643Y-16002786D02*
X11362928Y-15988500D01*
X11391500Y-15974214D01*
X11434357Y-15974214D01*
X11462928Y-15988500D01*
X11477214Y-16017071D01*
X11477214Y-16174214D01*
X11477214Y-16017071D02*
X11491500Y-15988500D01*
X11520071Y-15974214D01*
X11562928Y-15974214D01*
X11591500Y-15988500D01*
X11605786Y-16017071D01*
X11605786Y-16174214D01*
X11748643Y-16174214D02*
X11748643Y-15974214D01*
X11748643Y-16002786D02*
X11762928Y-15988500D01*
X11791500Y-15974214D01*
X11834357Y-15974214D01*
X11862928Y-15988500D01*
X11877214Y-16017071D01*
X11877214Y-16174214D01*
X11877214Y-16017071D02*
X11891500Y-15988500D01*
X11920071Y-15974214D01*
X11962928Y-15974214D01*
X11991500Y-15988500D01*
X12005786Y-16017071D01*
X12005786Y-16174214D01*
X12591500Y-15859929D02*
X12334357Y-16245643D01*
X12977214Y-15874214D02*
X13005786Y-15874214D01*
X13034357Y-15888500D01*
X13048643Y-15902786D01*
X13062928Y-15931357D01*
X13077214Y-15988500D01*
X13077214Y-16059929D01*
X13062928Y-16117071D01*
X13048643Y-16145643D01*
X13034357Y-16159929D01*
X13005786Y-16174214D01*
X12977214Y-16174214D01*
X12948643Y-16159929D01*
X12934357Y-16145643D01*
X12920071Y-16117071D01*
X12905786Y-16059929D01*
X12905786Y-15988500D01*
X12920071Y-15931357D01*
X12934357Y-15902786D01*
X12948643Y-15888500D01*
X12977214Y-15874214D01*
X13205786Y-16145643D02*
X13220071Y-16159929D01*
X13205786Y-16174214D01*
X13191500Y-16159929D01*
X13205786Y-16145643D01*
X13205786Y-16174214D01*
X13405786Y-15874214D02*
X13434357Y-15874214D01*
X13462928Y-15888500D01*
X13477214Y-15902786D01*
X13491500Y-15931357D01*
X13505786Y-15988500D01*
X13505786Y-16059929D01*
X13491500Y-16117071D01*
X13477214Y-16145643D01*
X13462928Y-16159929D01*
X13434357Y-16174214D01*
X13405786Y-16174214D01*
X13377214Y-16159929D01*
X13362928Y-16145643D01*
X13348643Y-16117071D01*
X13334357Y-16059929D01*
X13334357Y-15988500D01*
X13348643Y-15931357D01*
X13362928Y-15902786D01*
X13377214Y-15888500D01*
X13405786Y-15874214D01*
X13605786Y-15874214D02*
X13805786Y-15874214D01*
X13677214Y-16174214D01*
X13905786Y-15902786D02*
X13920071Y-15888500D01*
X13948643Y-15874214D01*
X14020071Y-15874214D01*
X14048643Y-15888500D01*
X14062928Y-15902786D01*
X14077214Y-15931357D01*
X14077214Y-15959929D01*
X14062928Y-16002786D01*
X13891500Y-16174214D01*
X14077214Y-16174214D01*
X14248643Y-16002786D02*
X14220071Y-15988500D01*
X14205786Y-15974214D01*
X14191500Y-15945643D01*
X14191500Y-15931357D01*
X14205786Y-15902786D01*
X14220071Y-15888500D01*
X14248643Y-15874214D01*
X14305786Y-15874214D01*
X14334357Y-15888500D01*
X14348643Y-15902786D01*
X14362928Y-15931357D01*
X14362928Y-15945643D01*
X14348643Y-15974214D01*
X14334357Y-15988500D01*
X14305786Y-16002786D01*
X14248643Y-16002786D01*
X14220071Y-16017071D01*
X14205786Y-16031357D01*
X14191500Y-16059929D01*
X14191500Y-16117071D01*
X14205786Y-16145643D01*
X14220071Y-16159929D01*
X14248643Y-16174214D01*
X14305786Y-16174214D01*
X14334357Y-16159929D01*
X14348643Y-16145643D01*
X14362928Y-16117071D01*
X14362928Y-16059929D01*
X14348643Y-16031357D01*
X14334357Y-16017071D01*
X14305786Y-16002786D01*
X14477214Y-15874214D02*
X14477214Y-15931357D01*
X14591500Y-15874214D02*
X14591500Y-15931357D01*
X15034357Y-16288500D02*
X15020071Y-16274214D01*
X14991500Y-16231357D01*
X14977214Y-16202786D01*
X14962928Y-16159929D01*
X14948643Y-16088500D01*
X14948643Y-16031357D01*
X14962928Y-15959929D01*
X14977214Y-15917071D01*
X14991500Y-15888500D01*
X15020071Y-15845643D01*
X15034357Y-15831357D01*
X15277214Y-15874214D02*
X15220071Y-15874214D01*
X15191500Y-15888500D01*
X15177214Y-15902786D01*
X15148643Y-15945643D01*
X15134357Y-16002786D01*
X15134357Y-16117071D01*
X15148643Y-16145643D01*
X15162928Y-16159929D01*
X15191500Y-16174214D01*
X15248643Y-16174214D01*
X15277214Y-16159929D01*
X15291500Y-16145643D01*
X15305786Y-16117071D01*
X15305786Y-16045643D01*
X15291500Y-16017071D01*
X15277214Y-16002786D01*
X15248643Y-15988500D01*
X15191500Y-15988500D01*
X15162928Y-16002786D01*
X15148643Y-16017071D01*
X15134357Y-16045643D01*
X15662928Y-16174214D02*
X15662928Y-15874214D01*
X15791500Y-16174214D02*
X15791500Y-16017071D01*
X15777214Y-15988500D01*
X15748643Y-15974214D01*
X15705786Y-15974214D01*
X15677214Y-15988500D01*
X15662928Y-16002786D01*
X15977214Y-16174214D02*
X15948643Y-16159929D01*
X15934357Y-16145643D01*
X15920071Y-16117071D01*
X15920071Y-16031357D01*
X15934357Y-16002786D01*
X15948643Y-15988500D01*
X15977214Y-15974214D01*
X16020071Y-15974214D01*
X16048643Y-15988500D01*
X16062928Y-16002786D01*
X16077214Y-16031357D01*
X16077214Y-16117071D01*
X16062928Y-16145643D01*
X16048643Y-16159929D01*
X16020071Y-16174214D01*
X15977214Y-16174214D01*
X16248643Y-16174214D02*
X16220071Y-16159929D01*
X16205786Y-16131357D01*
X16205786Y-15874214D01*
X16477214Y-16159929D02*
X16448643Y-16174214D01*
X16391500Y-16174214D01*
X16362928Y-16159929D01*
X16348643Y-16131357D01*
X16348643Y-16017071D01*
X16362928Y-15988500D01*
X16391500Y-15974214D01*
X16448643Y-15974214D01*
X16477214Y-15988500D01*
X16491500Y-16017071D01*
X16491500Y-16045643D01*
X16348643Y-16074214D01*
X16605786Y-16159929D02*
X16634357Y-16174214D01*
X16691500Y-16174214D01*
X16720071Y-16159929D01*
X16734357Y-16131357D01*
X16734357Y-16117071D01*
X16720071Y-16088500D01*
X16691500Y-16074214D01*
X16648643Y-16074214D01*
X16620071Y-16059929D01*
X16605786Y-16031357D01*
X16605786Y-16017071D01*
X16620071Y-15988500D01*
X16648643Y-15974214D01*
X16691500Y-15974214D01*
X16720071Y-15988500D01*
X16834357Y-16288500D02*
X16848643Y-16274214D01*
X16877214Y-16231357D01*
X16891500Y-16202786D01*
X16905786Y-16159929D01*
X16920071Y-16088500D01*
X16920071Y-16031357D01*
X16905786Y-15959929D01*
X16891500Y-15917071D01*
X16877214Y-15888500D01*
X16848643Y-15845643D01*
X16834357Y-15831357D01*
M02*
