M48
; DRILL file {KiCad (5.1.12)-1} date 10/19/22 19:02:02
; FORMAT={-:-/ absolute / metric / decimal}
; #@! TF.CreationDate,2022-10-19T19:02:02-07:00
; #@! TF.GenerationSoftware,Kicad,Pcbnew,(5.1.12)-1
; #@! TF.FileFunction,Plated,1,2,PTH
FMAT,2
METRIC
T1C0.400
T2C0.800
T3C0.889
T4C0.900
T5C1.000
T6C1.397
T7C1.850
%
G90
G05
T1
X105.778Y-102.222
X108.966Y-108.966
X109.22Y-99.187
X118.491Y-108.966
X118.618Y-99.06
X130.175Y-112.776
X139.395Y-97.079
X142.748Y-85.852
X142.875Y-107.95
X142.926Y-113.17
X146.558Y-111.76
X146.558Y-120.777
X146.685Y-108.077
X146.685Y-113.157
X146.812Y-118.237
X148.59Y-122.936
X153.924Y-102.616
X154.178Y-95.758
X154.178Y-98.425
X158.433Y-105.029
X160.261Y-94.132
X162.154Y-121.92
X162.179Y-105.156
X169.672Y-117.856
T2
X140.97Y-87.757
X140.97Y-90.297
X140.97Y-92.837
X140.97Y-95.377
X140.97Y-97.917
X140.97Y-100.457
X140.97Y-102.997
X140.97Y-105.537
X140.97Y-108.077
X140.97Y-110.617
X140.97Y-113.157
X140.97Y-115.697
X140.97Y-118.237
X140.97Y-120.777
X148.59Y-87.757
X148.59Y-90.297
X148.59Y-92.837
X148.59Y-95.377
X148.59Y-97.917
X148.59Y-100.457
X148.59Y-102.997
X148.59Y-105.537
X148.59Y-108.077
X148.59Y-110.617
X148.59Y-113.157
X148.59Y-115.697
X148.59Y-118.237
X148.59Y-120.777
T3
X103.378Y-99.695
X103.378Y-102.235
X103.378Y-104.775
X110.998Y-112.395
X113.538Y-112.395
X116.078Y-112.395
X174.498Y-100.711
X174.498Y-103.251
X174.498Y-105.791
X182.118Y-113.411
X184.658Y-113.411
X187.198Y-113.411
T4
X110.363Y-89.535
X110.363Y-94.615
X116.713Y-89.535
X116.713Y-94.615
X181.483Y-90.551
X181.483Y-95.631
X187.833Y-90.551
X187.833Y-95.631
T5
X125.87Y-121.196
X128.41Y-121.196
X130.95Y-121.196
X132.588Y-116.459
X135.128Y-116.459
X135.128Y-121.183
X137.668Y-116.459
X137.668Y-121.183
X151.892Y-102.489
X151.892Y-105.029
X151.892Y-107.569
X151.892Y-110.109
X151.892Y-112.649
X151.892Y-115.189
T6
X105.918Y-95.567
X105.918Y-108.902
X121.158Y-95.567
X121.158Y-108.902
X177.038Y-96.584
X177.038Y-109.918
X192.278Y-96.584
X192.278Y-109.918
T7
X157.479Y-109.728
X157.479Y-117.856
X162.179Y-109.728
X162.179Y-117.856
X166.879Y-109.728
X166.879Y-117.856
T0
M30
