%FSLAX45Y45*%
G04 Gerber Fmt 4.5, Leading zero omitted, Abs format (unit mm)*
G04 Created by KiCad (PCBNEW (5.1.12)-1) date 2022-10-20 21:18:30*
%MOMM*%
%LPD*%
G01*
G04 APERTURE LIST*
%TA.AperFunction,Profile*%
%ADD10C,0.050000*%
%TD*%
%ADD11C,0.200000*%
%ADD12C,0.300000*%
G04 APERTURE END LIST*
D10*
X20066000Y-11684000D02*
X20066000Y-8509000D01*
X9779000Y-8509000D02*
X9779000Y-11684000D01*
X19050000Y-7493000D02*
X10795000Y-7493000D01*
X10795000Y-12700000D02*
X19050000Y-12700000D01*
X20066000Y-8509000D02*
X19050000Y-7493000D01*
X20066000Y-11684000D02*
X19050000Y-12700000D01*
X10795000Y-7493000D02*
X9779000Y-8509000D01*
X10795000Y-12700000D02*
X9779000Y-11684000D01*
D11*
X10406000Y-8056500D02*
X10676000Y-8326500D01*
X10676000Y-8056500D02*
X10406000Y-8326500D01*
X10406000Y-11803000D02*
X10676000Y-12073000D01*
X10676000Y-11803000D02*
X10406000Y-12073000D01*
X19169000Y-8120000D02*
X19439000Y-8390000D01*
X19439000Y-8120000D02*
X19169000Y-8390000D01*
X19169000Y-11803000D02*
X19439000Y-12073000D01*
X19439000Y-11803000D02*
X19169000Y-12073000D01*
D12*
X10062928Y-13168214D02*
X10062928Y-12868214D01*
X10134357Y-12868214D01*
X10177214Y-12882500D01*
X10205786Y-12911071D01*
X10220071Y-12939643D01*
X10234357Y-12996786D01*
X10234357Y-13039643D01*
X10220071Y-13096786D01*
X10205786Y-13125357D01*
X10177214Y-13153929D01*
X10134357Y-13168214D01*
X10062928Y-13168214D01*
X10362928Y-13168214D02*
X10362928Y-12968214D01*
X10362928Y-13025357D02*
X10377214Y-12996786D01*
X10391500Y-12982500D01*
X10420071Y-12968214D01*
X10448643Y-12968214D01*
X10548643Y-13168214D02*
X10548643Y-12968214D01*
X10548643Y-12868214D02*
X10534357Y-12882500D01*
X10548643Y-12896786D01*
X10562928Y-12882500D01*
X10548643Y-12868214D01*
X10548643Y-12896786D01*
X10734357Y-13168214D02*
X10705786Y-13153929D01*
X10691500Y-13125357D01*
X10691500Y-12868214D01*
X10891500Y-13168214D02*
X10862928Y-13153929D01*
X10848643Y-13125357D01*
X10848643Y-12868214D01*
X11234357Y-13168214D02*
X11234357Y-12868214D01*
X11334357Y-13082500D01*
X11434357Y-12868214D01*
X11434357Y-13168214D01*
X11705786Y-13168214D02*
X11705786Y-13011071D01*
X11691500Y-12982500D01*
X11662928Y-12968214D01*
X11605786Y-12968214D01*
X11577214Y-12982500D01*
X11705786Y-13153929D02*
X11677214Y-13168214D01*
X11605786Y-13168214D01*
X11577214Y-13153929D01*
X11562928Y-13125357D01*
X11562928Y-13096786D01*
X11577214Y-13068214D01*
X11605786Y-13053929D01*
X11677214Y-13053929D01*
X11705786Y-13039643D01*
X11848643Y-12968214D02*
X11848643Y-13268214D01*
X11848643Y-12982500D02*
X11877214Y-12968214D01*
X11934357Y-12968214D01*
X11962928Y-12982500D01*
X11977214Y-12996786D01*
X11991500Y-13025357D01*
X11991500Y-13111071D01*
X11977214Y-13139643D01*
X11962928Y-13153929D01*
X11934357Y-13168214D01*
X11877214Y-13168214D01*
X11848643Y-13153929D01*
X12120071Y-13139643D02*
X12134357Y-13153929D01*
X12120071Y-13168214D01*
X12105786Y-13153929D01*
X12120071Y-13139643D01*
X12120071Y-13168214D01*
X12120071Y-12982500D02*
X12134357Y-12996786D01*
X12120071Y-13011071D01*
X12105786Y-12996786D01*
X12120071Y-12982500D01*
X12120071Y-13011071D01*
X9506500Y-13527500D02*
X9776500Y-13797500D01*
X9776500Y-13527500D02*
X9506500Y-13797500D01*
X10048643Y-13526786D02*
X10062928Y-13512500D01*
X10091500Y-13498214D01*
X10162928Y-13498214D01*
X10191500Y-13512500D01*
X10205786Y-13526786D01*
X10220071Y-13555357D01*
X10220071Y-13583929D01*
X10205786Y-13626786D01*
X10034357Y-13798214D01*
X10220071Y-13798214D01*
X10348643Y-13769643D02*
X10362928Y-13783929D01*
X10348643Y-13798214D01*
X10334357Y-13783929D01*
X10348643Y-13769643D01*
X10348643Y-13798214D01*
X10462928Y-13498214D02*
X10662928Y-13498214D01*
X10534357Y-13798214D01*
X10834357Y-13498214D02*
X10862928Y-13498214D01*
X10891500Y-13512500D01*
X10905786Y-13526786D01*
X10920071Y-13555357D01*
X10934357Y-13612500D01*
X10934357Y-13683929D01*
X10920071Y-13741071D01*
X10905786Y-13769643D01*
X10891500Y-13783929D01*
X10862928Y-13798214D01*
X10834357Y-13798214D01*
X10805786Y-13783929D01*
X10791500Y-13769643D01*
X10777214Y-13741071D01*
X10762928Y-13683929D01*
X10762928Y-13612500D01*
X10777214Y-13555357D01*
X10791500Y-13526786D01*
X10805786Y-13512500D01*
X10834357Y-13498214D01*
X11120071Y-13498214D02*
X11148643Y-13498214D01*
X11177214Y-13512500D01*
X11191500Y-13526786D01*
X11205786Y-13555357D01*
X11220071Y-13612500D01*
X11220071Y-13683929D01*
X11205786Y-13741071D01*
X11191500Y-13769643D01*
X11177214Y-13783929D01*
X11148643Y-13798214D01*
X11120071Y-13798214D01*
X11091500Y-13783929D01*
X11077214Y-13769643D01*
X11062928Y-13741071D01*
X11048643Y-13683929D01*
X11048643Y-13612500D01*
X11062928Y-13555357D01*
X11077214Y-13526786D01*
X11091500Y-13512500D01*
X11120071Y-13498214D01*
X11348643Y-13798214D02*
X11348643Y-13598214D01*
X11348643Y-13626786D02*
X11362928Y-13612500D01*
X11391500Y-13598214D01*
X11434357Y-13598214D01*
X11462928Y-13612500D01*
X11477214Y-13641071D01*
X11477214Y-13798214D01*
X11477214Y-13641071D02*
X11491500Y-13612500D01*
X11520071Y-13598214D01*
X11562928Y-13598214D01*
X11591500Y-13612500D01*
X11605786Y-13641071D01*
X11605786Y-13798214D01*
X11748643Y-13798214D02*
X11748643Y-13598214D01*
X11748643Y-13626786D02*
X11762928Y-13612500D01*
X11791500Y-13598214D01*
X11834357Y-13598214D01*
X11862928Y-13612500D01*
X11877214Y-13641071D01*
X11877214Y-13798214D01*
X11877214Y-13641071D02*
X11891500Y-13612500D01*
X11920071Y-13598214D01*
X11962928Y-13598214D01*
X11991500Y-13612500D01*
X12005786Y-13641071D01*
X12005786Y-13798214D01*
X12591500Y-13483929D02*
X12334357Y-13869643D01*
X12977214Y-13498214D02*
X13005786Y-13498214D01*
X13034357Y-13512500D01*
X13048643Y-13526786D01*
X13062928Y-13555357D01*
X13077214Y-13612500D01*
X13077214Y-13683929D01*
X13062928Y-13741071D01*
X13048643Y-13769643D01*
X13034357Y-13783929D01*
X13005786Y-13798214D01*
X12977214Y-13798214D01*
X12948643Y-13783929D01*
X12934357Y-13769643D01*
X12920071Y-13741071D01*
X12905786Y-13683929D01*
X12905786Y-13612500D01*
X12920071Y-13555357D01*
X12934357Y-13526786D01*
X12948643Y-13512500D01*
X12977214Y-13498214D01*
X13205786Y-13769643D02*
X13220071Y-13783929D01*
X13205786Y-13798214D01*
X13191500Y-13783929D01*
X13205786Y-13769643D01*
X13205786Y-13798214D01*
X13505786Y-13798214D02*
X13334357Y-13798214D01*
X13420071Y-13798214D02*
X13420071Y-13498214D01*
X13391500Y-13541071D01*
X13362928Y-13569643D01*
X13334357Y-13583929D01*
X13691500Y-13498214D02*
X13720071Y-13498214D01*
X13748643Y-13512500D01*
X13762928Y-13526786D01*
X13777214Y-13555357D01*
X13791500Y-13612500D01*
X13791500Y-13683929D01*
X13777214Y-13741071D01*
X13762928Y-13769643D01*
X13748643Y-13783929D01*
X13720071Y-13798214D01*
X13691500Y-13798214D01*
X13662928Y-13783929D01*
X13648643Y-13769643D01*
X13634357Y-13741071D01*
X13620071Y-13683929D01*
X13620071Y-13612500D01*
X13634357Y-13555357D01*
X13648643Y-13526786D01*
X13662928Y-13512500D01*
X13691500Y-13498214D01*
X14048643Y-13498214D02*
X13991500Y-13498214D01*
X13962928Y-13512500D01*
X13948643Y-13526786D01*
X13920071Y-13569643D01*
X13905786Y-13626786D01*
X13905786Y-13741071D01*
X13920071Y-13769643D01*
X13934357Y-13783929D01*
X13962928Y-13798214D01*
X14020071Y-13798214D01*
X14048643Y-13783929D01*
X14062928Y-13769643D01*
X14077214Y-13741071D01*
X14077214Y-13669643D01*
X14062928Y-13641071D01*
X14048643Y-13626786D01*
X14020071Y-13612500D01*
X13962928Y-13612500D01*
X13934357Y-13626786D01*
X13920071Y-13641071D01*
X13905786Y-13669643D01*
X14177214Y-13498214D02*
X14362928Y-13498214D01*
X14262928Y-13612500D01*
X14305786Y-13612500D01*
X14334357Y-13626786D01*
X14348643Y-13641071D01*
X14362928Y-13669643D01*
X14362928Y-13741071D01*
X14348643Y-13769643D01*
X14334357Y-13783929D01*
X14305786Y-13798214D01*
X14220071Y-13798214D01*
X14191500Y-13783929D01*
X14177214Y-13769643D01*
X14477214Y-13498214D02*
X14477214Y-13555357D01*
X14591500Y-13498214D02*
X14591500Y-13555357D01*
X15034357Y-13912500D02*
X15020071Y-13898214D01*
X14991500Y-13855357D01*
X14977214Y-13826786D01*
X14962928Y-13783929D01*
X14948643Y-13712500D01*
X14948643Y-13655357D01*
X14962928Y-13583929D01*
X14977214Y-13541071D01*
X14991500Y-13512500D01*
X15020071Y-13469643D01*
X15034357Y-13455357D01*
X15277214Y-13598214D02*
X15277214Y-13798214D01*
X15205786Y-13483929D02*
X15134357Y-13698214D01*
X15320071Y-13698214D01*
X15662928Y-13798214D02*
X15662928Y-13498214D01*
X15791500Y-13798214D02*
X15791500Y-13641071D01*
X15777214Y-13612500D01*
X15748643Y-13598214D01*
X15705786Y-13598214D01*
X15677214Y-13612500D01*
X15662928Y-13626786D01*
X15977214Y-13798214D02*
X15948643Y-13783929D01*
X15934357Y-13769643D01*
X15920071Y-13741071D01*
X15920071Y-13655357D01*
X15934357Y-13626786D01*
X15948643Y-13612500D01*
X15977214Y-13598214D01*
X16020071Y-13598214D01*
X16048643Y-13612500D01*
X16062928Y-13626786D01*
X16077214Y-13655357D01*
X16077214Y-13741071D01*
X16062928Y-13769643D01*
X16048643Y-13783929D01*
X16020071Y-13798214D01*
X15977214Y-13798214D01*
X16248643Y-13798214D02*
X16220071Y-13783929D01*
X16205786Y-13755357D01*
X16205786Y-13498214D01*
X16477214Y-13783929D02*
X16448643Y-13798214D01*
X16391500Y-13798214D01*
X16362928Y-13783929D01*
X16348643Y-13755357D01*
X16348643Y-13641071D01*
X16362928Y-13612500D01*
X16391500Y-13598214D01*
X16448643Y-13598214D01*
X16477214Y-13612500D01*
X16491500Y-13641071D01*
X16491500Y-13669643D01*
X16348643Y-13698214D01*
X16605786Y-13783929D02*
X16634357Y-13798214D01*
X16691500Y-13798214D01*
X16720071Y-13783929D01*
X16734357Y-13755357D01*
X16734357Y-13741071D01*
X16720071Y-13712500D01*
X16691500Y-13698214D01*
X16648643Y-13698214D01*
X16620071Y-13683929D01*
X16605786Y-13655357D01*
X16605786Y-13641071D01*
X16620071Y-13612500D01*
X16648643Y-13598214D01*
X16691500Y-13598214D01*
X16720071Y-13612500D01*
X16834357Y-13912500D02*
X16848643Y-13898214D01*
X16877214Y-13855357D01*
X16891500Y-13826786D01*
X16905786Y-13783929D01*
X16920071Y-13712500D01*
X16920071Y-13655357D01*
X16905786Y-13583929D01*
X16891500Y-13541071D01*
X16877214Y-13512500D01*
X16848643Y-13469643D01*
X16834357Y-13455357D01*
X17377214Y-13912500D02*
X17362928Y-13898214D01*
X17334357Y-13855357D01*
X17320071Y-13826786D01*
X17305786Y-13783929D01*
X17291500Y-13712500D01*
X17291500Y-13655357D01*
X17305786Y-13583929D01*
X17320071Y-13541071D01*
X17334357Y-13512500D01*
X17362928Y-13469643D01*
X17377214Y-13455357D01*
X17491500Y-13598214D02*
X17491500Y-13798214D01*
X17491500Y-13626786D02*
X17505786Y-13612500D01*
X17534357Y-13598214D01*
X17577214Y-13598214D01*
X17605786Y-13612500D01*
X17620071Y-13641071D01*
X17620071Y-13798214D01*
X17805786Y-13798214D02*
X17777214Y-13783929D01*
X17762928Y-13769643D01*
X17748643Y-13741071D01*
X17748643Y-13655357D01*
X17762928Y-13626786D01*
X17777214Y-13612500D01*
X17805786Y-13598214D01*
X17848643Y-13598214D01*
X17877214Y-13612500D01*
X17891500Y-13626786D01*
X17905786Y-13655357D01*
X17905786Y-13741071D01*
X17891500Y-13769643D01*
X17877214Y-13783929D01*
X17848643Y-13798214D01*
X17805786Y-13798214D01*
X17991500Y-13598214D02*
X18105786Y-13598214D01*
X18034357Y-13498214D02*
X18034357Y-13755357D01*
X18048643Y-13783929D01*
X18077214Y-13798214D01*
X18105786Y-13798214D01*
X18434357Y-13598214D02*
X18434357Y-13898214D01*
X18434357Y-13612500D02*
X18462928Y-13598214D01*
X18520071Y-13598214D01*
X18548643Y-13612500D01*
X18562928Y-13626786D01*
X18577214Y-13655357D01*
X18577214Y-13741071D01*
X18562928Y-13769643D01*
X18548643Y-13783929D01*
X18520071Y-13798214D01*
X18462928Y-13798214D01*
X18434357Y-13783929D01*
X18748643Y-13798214D02*
X18720071Y-13783929D01*
X18705786Y-13755357D01*
X18705786Y-13498214D01*
X18991500Y-13798214D02*
X18991500Y-13641071D01*
X18977214Y-13612500D01*
X18948643Y-13598214D01*
X18891500Y-13598214D01*
X18862928Y-13612500D01*
X18991500Y-13783929D02*
X18962928Y-13798214D01*
X18891500Y-13798214D01*
X18862928Y-13783929D01*
X18848643Y-13755357D01*
X18848643Y-13726786D01*
X18862928Y-13698214D01*
X18891500Y-13683929D01*
X18962928Y-13683929D01*
X18991500Y-13669643D01*
X19091500Y-13598214D02*
X19205786Y-13598214D01*
X19134357Y-13498214D02*
X19134357Y-13755357D01*
X19148643Y-13783929D01*
X19177214Y-13798214D01*
X19205786Y-13798214D01*
X19420071Y-13783929D02*
X19391500Y-13798214D01*
X19334357Y-13798214D01*
X19305786Y-13783929D01*
X19291500Y-13755357D01*
X19291500Y-13641071D01*
X19305786Y-13612500D01*
X19334357Y-13598214D01*
X19391500Y-13598214D01*
X19420071Y-13612500D01*
X19434357Y-13641071D01*
X19434357Y-13669643D01*
X19291500Y-13698214D01*
X19691500Y-13798214D02*
X19691500Y-13498214D01*
X19691500Y-13783929D02*
X19662928Y-13798214D01*
X19605786Y-13798214D01*
X19577214Y-13783929D01*
X19562928Y-13769643D01*
X19548643Y-13741071D01*
X19548643Y-13655357D01*
X19562928Y-13626786D01*
X19577214Y-13612500D01*
X19605786Y-13598214D01*
X19662928Y-13598214D01*
X19691500Y-13612500D01*
X19805786Y-13912500D02*
X19820071Y-13898214D01*
X19848643Y-13855357D01*
X19862928Y-13826786D01*
X19877214Y-13783929D01*
X19891500Y-13712500D01*
X19891500Y-13655357D01*
X19877214Y-13583929D01*
X19862928Y-13541071D01*
X19848643Y-13512500D01*
X19820071Y-13469643D01*
X19805786Y-13455357D01*
M02*
