G04 #@! TF.GenerationSoftware,KiCad,Pcbnew,(5.1.12)-1*
G04 #@! TF.CreationDate,2022-10-20T21:18:09-07:00*
G04 #@! TF.ProjectId,Transmisor_de_radio,5472616e-736d-4697-936f-725f64655f72,rev?*
G04 #@! TF.SameCoordinates,Original*
G04 #@! TF.FileFunction,Paste,Top*
G04 #@! TF.FilePolarity,Positive*
%FSLAX46Y46*%
G04 Gerber Fmt 4.6, Leading zero omitted, Abs format (unit mm)*
G04 Created by KiCad (PCBNEW (5.1.12)-1) date 2022-10-20 21:18:09*
%MOMM*%
%LPD*%
G01*
G04 APERTURE LIST*
%ADD10R,2.000000X1.500000*%
%ADD11R,2.000000X3.800000*%
%ADD12R,3.800000X2.000000*%
%ADD13R,1.500000X2.000000*%
%ADD14R,1.000000X3.000000*%
%ADD15R,2.500000X3.325000*%
G04 APERTURE END LIST*
G36*
G01*
X161027000Y-90974000D02*
X161027000Y-89874000D01*
G75*
G02*
X161277000Y-89624000I250000J0D01*
G01*
X164102000Y-89624000D01*
G75*
G02*
X164352000Y-89874000I0J-250000D01*
G01*
X164352000Y-90974000D01*
G75*
G02*
X164102000Y-91224000I-250000J0D01*
G01*
X161277000Y-91224000D01*
G75*
G02*
X161027000Y-90974000I0J250000D01*
G01*
G37*
G36*
G01*
X166102000Y-90974000D02*
X166102000Y-89874000D01*
G75*
G02*
X166352000Y-89624000I250000J0D01*
G01*
X169177000Y-89624000D01*
G75*
G02*
X169427000Y-89874000I0J-250000D01*
G01*
X169427000Y-90974000D01*
G75*
G02*
X169177000Y-91224000I-250000J0D01*
G01*
X166352000Y-91224000D01*
G75*
G02*
X166102000Y-90974000I0J250000D01*
G01*
G37*
G36*
G01*
X133570000Y-109813000D02*
X133570000Y-110913000D01*
G75*
G02*
X133320000Y-111163000I-250000J0D01*
G01*
X130320000Y-111163000D01*
G75*
G02*
X130070000Y-110913000I0J250000D01*
G01*
X130070000Y-109813000D01*
G75*
G02*
X130320000Y-109563000I250000J0D01*
G01*
X133320000Y-109563000D01*
G75*
G02*
X133570000Y-109813000I0J-250000D01*
G01*
G37*
G36*
G01*
X139170000Y-109813000D02*
X139170000Y-110913000D01*
G75*
G02*
X138920000Y-111163000I-250000J0D01*
G01*
X135920000Y-111163000D01*
G75*
G02*
X135670000Y-110913000I0J250000D01*
G01*
X135670000Y-109813000D01*
G75*
G02*
X135920000Y-109563000I250000J0D01*
G01*
X138920000Y-109563000D01*
G75*
G02*
X139170000Y-109813000I0J-250000D01*
G01*
G37*
G36*
G01*
X163983000Y-95979000D02*
X163983000Y-95029000D01*
G75*
G02*
X164233000Y-94779000I250000J0D01*
G01*
X164908000Y-94779000D01*
G75*
G02*
X165158000Y-95029000I0J-250000D01*
G01*
X165158000Y-95979000D01*
G75*
G02*
X164908000Y-96229000I-250000J0D01*
G01*
X164233000Y-96229000D01*
G75*
G02*
X163983000Y-95979000I0J250000D01*
G01*
G37*
G36*
G01*
X166058000Y-95979000D02*
X166058000Y-95029000D01*
G75*
G02*
X166308000Y-94779000I250000J0D01*
G01*
X166983000Y-94779000D01*
G75*
G02*
X167233000Y-95029000I0J-250000D01*
G01*
X167233000Y-95979000D01*
G75*
G02*
X166983000Y-96229000I-250000J0D01*
G01*
X166308000Y-96229000D01*
G75*
G02*
X166058000Y-95979000I0J250000D01*
G01*
G37*
G36*
G01*
X159363000Y-89874000D02*
X159363000Y-90974000D01*
G75*
G02*
X159113000Y-91224000I-250000J0D01*
G01*
X156113000Y-91224000D01*
G75*
G02*
X155863000Y-90974000I0J250000D01*
G01*
X155863000Y-89874000D01*
G75*
G02*
X156113000Y-89624000I250000J0D01*
G01*
X159113000Y-89624000D01*
G75*
G02*
X159363000Y-89874000I0J-250000D01*
G01*
G37*
G36*
G01*
X153763000Y-89874000D02*
X153763000Y-90974000D01*
G75*
G02*
X153513000Y-91224000I-250000J0D01*
G01*
X150513000Y-91224000D01*
G75*
G02*
X150263000Y-90974000I0J250000D01*
G01*
X150263000Y-89874000D01*
G75*
G02*
X150513000Y-89624000I250000J0D01*
G01*
X153513000Y-89624000D01*
G75*
G02*
X153763000Y-89874000I0J-250000D01*
G01*
G37*
G36*
G01*
X150267000Y-118712000D02*
X150267000Y-117762000D01*
G75*
G02*
X150517000Y-117512000I250000J0D01*
G01*
X151192000Y-117512000D01*
G75*
G02*
X151442000Y-117762000I0J-250000D01*
G01*
X151442000Y-118712000D01*
G75*
G02*
X151192000Y-118962000I-250000J0D01*
G01*
X150517000Y-118962000D01*
G75*
G02*
X150267000Y-118712000I0J250000D01*
G01*
G37*
G36*
G01*
X152342000Y-118712000D02*
X152342000Y-117762000D01*
G75*
G02*
X152592000Y-117512000I250000J0D01*
G01*
X153267000Y-117512000D01*
G75*
G02*
X153517000Y-117762000I0J-250000D01*
G01*
X153517000Y-118712000D01*
G75*
G02*
X153267000Y-118962000I-250000J0D01*
G01*
X152592000Y-118962000D01*
G75*
G02*
X152342000Y-118712000I0J250000D01*
G01*
G37*
G36*
G01*
X133773000Y-96752000D02*
X132673000Y-96752000D01*
G75*
G02*
X132423000Y-96502000I0J250000D01*
G01*
X132423000Y-93502000D01*
G75*
G02*
X132673000Y-93252000I250000J0D01*
G01*
X133773000Y-93252000D01*
G75*
G02*
X134023000Y-93502000I0J-250000D01*
G01*
X134023000Y-96502000D01*
G75*
G02*
X133773000Y-96752000I-250000J0D01*
G01*
G37*
G36*
G01*
X133773000Y-91152000D02*
X132673000Y-91152000D01*
G75*
G02*
X132423000Y-90902000I0J250000D01*
G01*
X132423000Y-87902000D01*
G75*
G02*
X132673000Y-87652000I250000J0D01*
G01*
X133773000Y-87652000D01*
G75*
G02*
X134023000Y-87902000I0J-250000D01*
G01*
X134023000Y-90902000D01*
G75*
G02*
X133773000Y-91152000I-250000J0D01*
G01*
G37*
G36*
G01*
X153517000Y-97823000D02*
X153517000Y-98773000D01*
G75*
G02*
X153267000Y-99023000I-250000J0D01*
G01*
X152592000Y-99023000D01*
G75*
G02*
X152342000Y-98773000I0J250000D01*
G01*
X152342000Y-97823000D01*
G75*
G02*
X152592000Y-97573000I250000J0D01*
G01*
X153267000Y-97573000D01*
G75*
G02*
X153517000Y-97823000I0J-250000D01*
G01*
G37*
G36*
G01*
X151442000Y-97823000D02*
X151442000Y-98773000D01*
G75*
G02*
X151192000Y-99023000I-250000J0D01*
G01*
X150517000Y-99023000D01*
G75*
G02*
X150267000Y-98773000I0J250000D01*
G01*
X150267000Y-97823000D01*
G75*
G02*
X150517000Y-97573000I250000J0D01*
G01*
X151192000Y-97573000D01*
G75*
G02*
X151442000Y-97823000I0J-250000D01*
G01*
G37*
G36*
G01*
X151442000Y-95283000D02*
X151442000Y-96233000D01*
G75*
G02*
X151192000Y-96483000I-250000J0D01*
G01*
X150517000Y-96483000D01*
G75*
G02*
X150267000Y-96233000I0J250000D01*
G01*
X150267000Y-95283000D01*
G75*
G02*
X150517000Y-95033000I250000J0D01*
G01*
X151192000Y-95033000D01*
G75*
G02*
X151442000Y-95283000I0J-250000D01*
G01*
G37*
G36*
G01*
X153517000Y-95283000D02*
X153517000Y-96233000D01*
G75*
G02*
X153267000Y-96483000I-250000J0D01*
G01*
X152592000Y-96483000D01*
G75*
G02*
X152342000Y-96233000I0J250000D01*
G01*
X152342000Y-95283000D01*
G75*
G02*
X152592000Y-95033000I250000J0D01*
G01*
X153267000Y-95033000D01*
G75*
G02*
X153517000Y-95283000I0J-250000D01*
G01*
G37*
G36*
G01*
X138778000Y-94419000D02*
X137828000Y-94419000D01*
G75*
G02*
X137578000Y-94169000I0J250000D01*
G01*
X137578000Y-93494000D01*
G75*
G02*
X137828000Y-93244000I250000J0D01*
G01*
X138778000Y-93244000D01*
G75*
G02*
X139028000Y-93494000I0J-250000D01*
G01*
X139028000Y-94169000D01*
G75*
G02*
X138778000Y-94419000I-250000J0D01*
G01*
G37*
G36*
G01*
X138778000Y-96494000D02*
X137828000Y-96494000D01*
G75*
G02*
X137578000Y-96244000I0J250000D01*
G01*
X137578000Y-95569000D01*
G75*
G02*
X137828000Y-95319000I250000J0D01*
G01*
X138778000Y-95319000D01*
G75*
G02*
X139028000Y-95569000I0J-250000D01*
G01*
X139028000Y-96244000D01*
G75*
G02*
X138778000Y-96494000I-250000J0D01*
G01*
G37*
G36*
G01*
X138759250Y-100739000D02*
X137846750Y-100739000D01*
G75*
G02*
X137603000Y-100495250I0J243750D01*
G01*
X137603000Y-100007750D01*
G75*
G02*
X137846750Y-99764000I243750J0D01*
G01*
X138759250Y-99764000D01*
G75*
G02*
X139003000Y-100007750I0J-243750D01*
G01*
X139003000Y-100495250D01*
G75*
G02*
X138759250Y-100739000I-243750J0D01*
G01*
G37*
G36*
G01*
X138759250Y-98864000D02*
X137846750Y-98864000D01*
G75*
G02*
X137603000Y-98620250I0J243750D01*
G01*
X137603000Y-98132750D01*
G75*
G02*
X137846750Y-97889000I243750J0D01*
G01*
X138759250Y-97889000D01*
G75*
G02*
X139003000Y-98132750I0J-243750D01*
G01*
X139003000Y-98620250D01*
G75*
G02*
X138759250Y-98864000I-243750J0D01*
G01*
G37*
G36*
G01*
X138753001Y-105105000D02*
X137852999Y-105105000D01*
G75*
G02*
X137603000Y-104855001I0J249999D01*
G01*
X137603000Y-104154999D01*
G75*
G02*
X137852999Y-103905000I249999J0D01*
G01*
X138753001Y-103905000D01*
G75*
G02*
X139003000Y-104154999I0J-249999D01*
G01*
X139003000Y-104855001D01*
G75*
G02*
X138753001Y-105105000I-249999J0D01*
G01*
G37*
G36*
G01*
X138753001Y-103105000D02*
X137852999Y-103105000D01*
G75*
G02*
X137603000Y-102855001I0J249999D01*
G01*
X137603000Y-102154999D01*
G75*
G02*
X137852999Y-101905000I249999J0D01*
G01*
X138753001Y-101905000D01*
G75*
G02*
X139003000Y-102154999I0J-249999D01*
G01*
X139003000Y-102855001D01*
G75*
G02*
X138753001Y-103105000I-249999J0D01*
G01*
G37*
G36*
G01*
X151492000Y-120834999D02*
X151492000Y-121735001D01*
G75*
G02*
X151242001Y-121985000I-249999J0D01*
G01*
X150541999Y-121985000D01*
G75*
G02*
X150292000Y-121735001I0J249999D01*
G01*
X150292000Y-120834999D01*
G75*
G02*
X150541999Y-120585000I249999J0D01*
G01*
X151242001Y-120585000D01*
G75*
G02*
X151492000Y-120834999I0J-249999D01*
G01*
G37*
G36*
G01*
X153492000Y-120834999D02*
X153492000Y-121735001D01*
G75*
G02*
X153242001Y-121985000I-249999J0D01*
G01*
X152541999Y-121985000D01*
G75*
G02*
X152292000Y-121735001I0J249999D01*
G01*
X152292000Y-120834999D01*
G75*
G02*
X152541999Y-120585000I249999J0D01*
G01*
X153242001Y-120585000D01*
G75*
G02*
X153492000Y-120834999I0J-249999D01*
G01*
G37*
D10*
X159918000Y-98157000D03*
X159918000Y-102757000D03*
X159918000Y-100457000D03*
D11*
X166218000Y-100457000D03*
D12*
X133223000Y-98577000D03*
D13*
X133223000Y-104877000D03*
X135523000Y-104877000D03*
X130923000Y-104877000D03*
D14*
X148590000Y-83419000D03*
X148590000Y-78379000D03*
X146050000Y-83419000D03*
X146050000Y-78379000D03*
X143510000Y-83419000D03*
X143510000Y-78379000D03*
X140970000Y-83419000D03*
X140970000Y-78379000D03*
D15*
X156210000Y-102099500D03*
X156210000Y-96274500D03*
M02*
