G04 #@! TF.GenerationSoftware,KiCad,Pcbnew,(5.1.12)-1*
G04 #@! TF.CreationDate,2022-10-20T21:18:09-07:00*
G04 #@! TF.ProjectId,Transmisor_de_radio,5472616e-736d-4697-936f-725f64655f72,rev?*
G04 #@! TF.SameCoordinates,Original*
G04 #@! TF.FileFunction,Legend,Top*
G04 #@! TF.FilePolarity,Positive*
%FSLAX46Y46*%
G04 Gerber Fmt 4.6, Leading zero omitted, Abs format (unit mm)*
G04 Created by KiCad (PCBNEW (5.1.12)-1) date 2022-10-20 21:18:09*
%MOMM*%
%LPD*%
G01*
G04 APERTURE LIST*
%ADD10C,0.508000*%
%ADD11C,0.127000*%
%ADD12C,0.120000*%
%ADD13C,0.200000*%
%ADD14C,0.150000*%
%ADD15C,2.700000*%
%ADD16R,1.600000X1.600000*%
%ADD17O,1.600000X1.600000*%
%ADD18R,2.000000X1.500000*%
%ADD19R,2.000000X3.800000*%
%ADD20R,3.800000X2.000000*%
%ADD21R,1.500000X2.000000*%
%ADD22C,1.778000*%
%ADD23C,2.286000*%
%ADD24R,1.700000X1.700000*%
%ADD25O,1.700000X1.700000*%
%ADD26R,1.000000X3.000000*%
%ADD27R,2.500000X3.325000*%
%ADD28C,2.775000*%
%ADD29R,2.775000X2.775000*%
G04 APERTURE END LIST*
D10*
X112985247Y-81187471D02*
X112138580Y-81187471D01*
X111972271Y-82517947D02*
X112289771Y-79977947D01*
X113499295Y-79977947D01*
X114512271Y-82517947D02*
X114285485Y-82396995D01*
X114179652Y-82276042D01*
X114088938Y-82034138D01*
X114179652Y-81308423D01*
X114330842Y-81066519D01*
X114466914Y-80945566D01*
X114723938Y-80824614D01*
X115086795Y-80824614D01*
X115313580Y-80945566D01*
X115419414Y-81066519D01*
X115510128Y-81308423D01*
X115419414Y-82034138D01*
X115268223Y-82276042D01*
X115132152Y-82396995D01*
X114875128Y-82517947D01*
X114512271Y-82517947D01*
X116205604Y-82517947D02*
X117747747Y-80824614D01*
X116417271Y-80824614D02*
X117536080Y-82517947D01*
X120438938Y-82517947D02*
X120650604Y-80824614D01*
X120590128Y-81308423D02*
X120741319Y-81066519D01*
X120877390Y-80945566D01*
X121134414Y-80824614D01*
X121376319Y-80824614D01*
X122374176Y-82517947D02*
X122147390Y-82396995D01*
X122041557Y-82276042D01*
X121950842Y-82034138D01*
X122041557Y-81308423D01*
X122192747Y-81066519D01*
X122328819Y-80945566D01*
X122585842Y-80824614D01*
X122948700Y-80824614D01*
X123175485Y-80945566D01*
X123281319Y-81066519D01*
X123372033Y-81308423D01*
X123281319Y-82034138D01*
X123130128Y-82276042D01*
X122994057Y-82396995D01*
X122737033Y-82517947D01*
X122374176Y-82517947D01*
X124309414Y-82517947D02*
X124626914Y-79977947D01*
X124505961Y-80945566D02*
X124762985Y-80824614D01*
X125246795Y-80824614D01*
X125473580Y-80945566D01*
X125579414Y-81066519D01*
X125670128Y-81308423D01*
X125579414Y-82034138D01*
X125428223Y-82276042D01*
X125292152Y-82396995D01*
X125035128Y-82517947D01*
X124551319Y-82517947D01*
X124324533Y-82396995D01*
X126970366Y-82517947D02*
X126743580Y-82396995D01*
X126637747Y-82276042D01*
X126547033Y-82034138D01*
X126637747Y-81308423D01*
X126788938Y-81066519D01*
X126925009Y-80945566D01*
X127182033Y-80824614D01*
X127544890Y-80824614D01*
X127771676Y-80945566D01*
X127877509Y-81066519D01*
X127968223Y-81308423D01*
X127877509Y-82034138D01*
X127726319Y-82276042D01*
X127590247Y-82396995D01*
X127333223Y-82517947D01*
X126970366Y-82517947D01*
X128754414Y-80824614D02*
X129722033Y-80824614D01*
X129223104Y-79977947D02*
X128950961Y-82155090D01*
X129041676Y-82396995D01*
X129268461Y-82517947D01*
X129510366Y-82517947D01*
X130357033Y-82517947D02*
X130568700Y-80824614D01*
X130674533Y-79977947D02*
X130538461Y-80098900D01*
X130644295Y-80219852D01*
X130780366Y-80098900D01*
X130674533Y-79977947D01*
X130644295Y-80219852D01*
X132670247Y-82396995D02*
X132413223Y-82517947D01*
X131929414Y-82517947D01*
X131702628Y-82396995D01*
X131596795Y-82276042D01*
X131506080Y-82034138D01*
X131596795Y-81308423D01*
X131747985Y-81066519D01*
X131884057Y-80945566D01*
X132141080Y-80824614D01*
X132624890Y-80824614D01*
X132851676Y-80945566D01*
X133637866Y-82396995D02*
X133864652Y-82517947D01*
X134348461Y-82517947D01*
X134605485Y-82396995D01*
X134756676Y-82155090D01*
X134771795Y-82034138D01*
X134681080Y-81792233D01*
X134454295Y-81671280D01*
X134091438Y-81671280D01*
X133864652Y-81550328D01*
X133773938Y-81308423D01*
X133789057Y-81187471D01*
X133940247Y-80945566D01*
X134197271Y-80824614D01*
X134560128Y-80824614D01*
X134786914Y-80945566D01*
D11*
X152854478Y-83453514D02*
X152854478Y-82691514D01*
X153035907Y-82691514D01*
X153144764Y-82727800D01*
X153217335Y-82800371D01*
X153253621Y-82872942D01*
X153289907Y-83018085D01*
X153289907Y-83126942D01*
X153253621Y-83272085D01*
X153217335Y-83344657D01*
X153144764Y-83417228D01*
X153035907Y-83453514D01*
X152854478Y-83453514D01*
X153906764Y-83417228D02*
X153834192Y-83453514D01*
X153689050Y-83453514D01*
X153616478Y-83417228D01*
X153580192Y-83344657D01*
X153580192Y-83054371D01*
X153616478Y-82981800D01*
X153689050Y-82945514D01*
X153834192Y-82945514D01*
X153906764Y-82981800D01*
X153943050Y-83054371D01*
X153943050Y-83126942D01*
X153580192Y-83199514D01*
X154233335Y-83417228D02*
X154305907Y-83453514D01*
X154451050Y-83453514D01*
X154523621Y-83417228D01*
X154559907Y-83344657D01*
X154559907Y-83308371D01*
X154523621Y-83235800D01*
X154451050Y-83199514D01*
X154342192Y-83199514D01*
X154269621Y-83163228D01*
X154233335Y-83090657D01*
X154233335Y-83054371D01*
X154269621Y-82981800D01*
X154342192Y-82945514D01*
X154451050Y-82945514D01*
X154523621Y-82981800D01*
X154886478Y-83453514D02*
X154886478Y-82945514D01*
X154886478Y-82691514D02*
X154850192Y-82727800D01*
X154886478Y-82764085D01*
X154922764Y-82727800D01*
X154886478Y-82691514D01*
X154886478Y-82764085D01*
X155575907Y-82945514D02*
X155575907Y-83562371D01*
X155539621Y-83634942D01*
X155503335Y-83671228D01*
X155430764Y-83707514D01*
X155321907Y-83707514D01*
X155249335Y-83671228D01*
X155575907Y-83417228D02*
X155503335Y-83453514D01*
X155358192Y-83453514D01*
X155285621Y-83417228D01*
X155249335Y-83380942D01*
X155213050Y-83308371D01*
X155213050Y-83090657D01*
X155249335Y-83018085D01*
X155285621Y-82981800D01*
X155358192Y-82945514D01*
X155503335Y-82945514D01*
X155575907Y-82981800D01*
X155938764Y-82945514D02*
X155938764Y-83453514D01*
X155938764Y-83018085D02*
X155975050Y-82981800D01*
X156047621Y-82945514D01*
X156156478Y-82945514D01*
X156229050Y-82981800D01*
X156265335Y-83054371D01*
X156265335Y-83453514D01*
X156918478Y-83417228D02*
X156845907Y-83453514D01*
X156700764Y-83453514D01*
X156628192Y-83417228D01*
X156591907Y-83344657D01*
X156591907Y-83054371D01*
X156628192Y-82981800D01*
X156700764Y-82945514D01*
X156845907Y-82945514D01*
X156918478Y-82981800D01*
X156954764Y-83054371D01*
X156954764Y-83126942D01*
X156591907Y-83199514D01*
X157607907Y-83453514D02*
X157607907Y-82691514D01*
X157607907Y-83417228D02*
X157535335Y-83453514D01*
X157390192Y-83453514D01*
X157317621Y-83417228D01*
X157281335Y-83380942D01*
X157245050Y-83308371D01*
X157245050Y-83090657D01*
X157281335Y-83018085D01*
X157317621Y-82981800D01*
X157390192Y-82945514D01*
X157535335Y-82945514D01*
X157607907Y-82981800D01*
X158551335Y-83453514D02*
X158551335Y-82691514D01*
X158551335Y-82981800D02*
X158623907Y-82945514D01*
X158769050Y-82945514D01*
X158841621Y-82981800D01*
X158877907Y-83018085D01*
X158914192Y-83090657D01*
X158914192Y-83308371D01*
X158877907Y-83380942D01*
X158841621Y-83417228D01*
X158769050Y-83453514D01*
X158623907Y-83453514D01*
X158551335Y-83417228D01*
X159168192Y-82945514D02*
X159349621Y-83453514D01*
X159531050Y-82945514D02*
X159349621Y-83453514D01*
X159277050Y-83634942D01*
X159240764Y-83671228D01*
X159168192Y-83707514D01*
X159821335Y-83380942D02*
X159857621Y-83417228D01*
X159821335Y-83453514D01*
X159785050Y-83417228D01*
X159821335Y-83380942D01*
X159821335Y-83453514D01*
X159821335Y-82981800D02*
X159857621Y-83018085D01*
X159821335Y-83054371D01*
X159785050Y-83018085D01*
X159821335Y-82981800D01*
X159821335Y-83054371D01*
X153217335Y-84723514D02*
X152854478Y-84723514D01*
X152854478Y-83961514D01*
X153797907Y-84215514D02*
X153797907Y-84723514D01*
X153471335Y-84215514D02*
X153471335Y-84614657D01*
X153507621Y-84687228D01*
X153580192Y-84723514D01*
X153689050Y-84723514D01*
X153761621Y-84687228D01*
X153797907Y-84650942D01*
X154160764Y-84723514D02*
X154160764Y-84215514D01*
X154160764Y-83961514D02*
X154124478Y-83997800D01*
X154160764Y-84034085D01*
X154197050Y-83997800D01*
X154160764Y-83961514D01*
X154160764Y-84034085D01*
X154487335Y-84687228D02*
X154559907Y-84723514D01*
X154705050Y-84723514D01*
X154777621Y-84687228D01*
X154813907Y-84614657D01*
X154813907Y-84578371D01*
X154777621Y-84505800D01*
X154705050Y-84469514D01*
X154596192Y-84469514D01*
X154523621Y-84433228D01*
X154487335Y-84360657D01*
X154487335Y-84324371D01*
X154523621Y-84251800D01*
X154596192Y-84215514D01*
X154705050Y-84215514D01*
X154777621Y-84251800D01*
X155684764Y-84505800D02*
X156047621Y-84505800D01*
X155612192Y-84723514D02*
X155866192Y-83961514D01*
X156120192Y-84723514D01*
X156700764Y-84723514D02*
X156700764Y-83961514D01*
X156700764Y-84687228D02*
X156628192Y-84723514D01*
X156483050Y-84723514D01*
X156410478Y-84687228D01*
X156374192Y-84650942D01*
X156337907Y-84578371D01*
X156337907Y-84360657D01*
X156374192Y-84288085D01*
X156410478Y-84251800D01*
X156483050Y-84215514D01*
X156628192Y-84215514D01*
X156700764Y-84251800D01*
X157063621Y-84723514D02*
X157063621Y-84215514D01*
X157063621Y-84360657D02*
X157099907Y-84288085D01*
X157136192Y-84251800D01*
X157208764Y-84215514D01*
X157281335Y-84215514D01*
X157535335Y-84723514D02*
X157535335Y-84215514D01*
X157535335Y-83961514D02*
X157499050Y-83997800D01*
X157535335Y-84034085D01*
X157571621Y-83997800D01*
X157535335Y-83961514D01*
X157535335Y-84034085D01*
X158224764Y-84723514D02*
X158224764Y-84324371D01*
X158188478Y-84251800D01*
X158115907Y-84215514D01*
X157970764Y-84215514D01*
X157898192Y-84251800D01*
X158224764Y-84687228D02*
X158152192Y-84723514D01*
X157970764Y-84723514D01*
X157898192Y-84687228D01*
X157861907Y-84614657D01*
X157861907Y-84542085D01*
X157898192Y-84469514D01*
X157970764Y-84433228D01*
X158152192Y-84433228D01*
X158224764Y-84396942D01*
X158587621Y-84215514D02*
X158587621Y-84723514D01*
X158587621Y-84288085D02*
X158623907Y-84251800D01*
X158696478Y-84215514D01*
X158805335Y-84215514D01*
X158877907Y-84251800D01*
X158914192Y-84324371D01*
X158914192Y-84723514D01*
X160293050Y-84650942D02*
X160256764Y-84687228D01*
X160147907Y-84723514D01*
X160075335Y-84723514D01*
X159966478Y-84687228D01*
X159893907Y-84614657D01*
X159857621Y-84542085D01*
X159821335Y-84396942D01*
X159821335Y-84288085D01*
X159857621Y-84142942D01*
X159893907Y-84070371D01*
X159966478Y-83997800D01*
X160075335Y-83961514D01*
X160147907Y-83961514D01*
X160256764Y-83997800D01*
X160293050Y-84034085D01*
X160946192Y-84723514D02*
X160946192Y-84324371D01*
X160909907Y-84251800D01*
X160837335Y-84215514D01*
X160692192Y-84215514D01*
X160619621Y-84251800D01*
X160946192Y-84687228D02*
X160873621Y-84723514D01*
X160692192Y-84723514D01*
X160619621Y-84687228D01*
X160583335Y-84614657D01*
X160583335Y-84542085D01*
X160619621Y-84469514D01*
X160692192Y-84433228D01*
X160873621Y-84433228D01*
X160946192Y-84396942D01*
X161309050Y-84723514D02*
X161309050Y-83961514D01*
X161309050Y-84251800D02*
X161381621Y-84215514D01*
X161526764Y-84215514D01*
X161599335Y-84251800D01*
X161635621Y-84288085D01*
X161671907Y-84360657D01*
X161671907Y-84578371D01*
X161635621Y-84650942D01*
X161599335Y-84687228D01*
X161526764Y-84723514D01*
X161381621Y-84723514D01*
X161309050Y-84687228D01*
X161998478Y-84723514D02*
X161998478Y-84215514D01*
X161998478Y-84360657D02*
X162034764Y-84288085D01*
X162071050Y-84251800D01*
X162143621Y-84215514D01*
X162216192Y-84215514D01*
X162760478Y-84687228D02*
X162687907Y-84723514D01*
X162542764Y-84723514D01*
X162470192Y-84687228D01*
X162433907Y-84614657D01*
X162433907Y-84324371D01*
X162470192Y-84251800D01*
X162542764Y-84215514D01*
X162687907Y-84215514D01*
X162760478Y-84251800D01*
X162796764Y-84324371D01*
X162796764Y-84396942D01*
X162433907Y-84469514D01*
X163123335Y-84723514D02*
X163123335Y-84215514D01*
X163123335Y-84360657D02*
X163159621Y-84288085D01*
X163195907Y-84251800D01*
X163268478Y-84215514D01*
X163341050Y-84215514D01*
X163921621Y-84723514D02*
X163921621Y-84324371D01*
X163885335Y-84251800D01*
X163812764Y-84215514D01*
X163667621Y-84215514D01*
X163595050Y-84251800D01*
X163921621Y-84687228D02*
X163849050Y-84723514D01*
X163667621Y-84723514D01*
X163595050Y-84687228D01*
X163558764Y-84614657D01*
X163558764Y-84542085D01*
X163595050Y-84469514D01*
X163667621Y-84433228D01*
X163849050Y-84433228D01*
X163921621Y-84396942D01*
X164865050Y-84723514D02*
X164865050Y-83961514D01*
X165119050Y-84505800D01*
X165373050Y-83961514D01*
X165373050Y-84723514D01*
X166062478Y-84215514D02*
X166062478Y-84723514D01*
X165735907Y-84215514D02*
X165735907Y-84614657D01*
X165772192Y-84687228D01*
X165844764Y-84723514D01*
X165953621Y-84723514D01*
X166026192Y-84687228D01*
X166062478Y-84650942D01*
X166425335Y-84215514D02*
X166425335Y-84723514D01*
X166425335Y-84288085D02*
X166461621Y-84251800D01*
X166534192Y-84215514D01*
X166643050Y-84215514D01*
X166715621Y-84251800D01*
X166751907Y-84324371D01*
X166751907Y-84723514D01*
X166389050Y-84034085D02*
X166425335Y-83997800D01*
X166497907Y-83961514D01*
X166643050Y-84034085D01*
X166715621Y-83997800D01*
X166751907Y-83961514D01*
X167223621Y-84723514D02*
X167151050Y-84687228D01*
X167114764Y-84650942D01*
X167078478Y-84578371D01*
X167078478Y-84360657D01*
X167114764Y-84288085D01*
X167151050Y-84251800D01*
X167223621Y-84215514D01*
X167332478Y-84215514D01*
X167405050Y-84251800D01*
X167441335Y-84288085D01*
X167477621Y-84360657D01*
X167477621Y-84578371D01*
X167441335Y-84650942D01*
X167405050Y-84687228D01*
X167332478Y-84723514D01*
X167223621Y-84723514D01*
X167731621Y-84215514D02*
X168130764Y-84215514D01*
X167731621Y-84723514D01*
X168130764Y-84723514D01*
D12*
X161817000Y-92769563D02*
X162881437Y-93834000D01*
X161817000Y-88078437D02*
X162881437Y-87014000D01*
X161817000Y-88078437D02*
X161817000Y-89364000D01*
X161817000Y-92769563D02*
X161817000Y-91484000D01*
X162881437Y-93834000D02*
X168637000Y-93834000D01*
X162881437Y-87014000D02*
X168637000Y-87014000D01*
X168637000Y-87014000D02*
X168637000Y-89364000D01*
X168637000Y-93834000D02*
X168637000Y-91484000D01*
X131210000Y-106953000D02*
X131210000Y-109303000D01*
X131210000Y-113773000D02*
X131210000Y-111423000D01*
X136965563Y-113773000D02*
X131210000Y-113773000D01*
X136965563Y-106953000D02*
X131210000Y-106953000D01*
X138030000Y-108017437D02*
X138030000Y-109303000D01*
X138030000Y-112708563D02*
X138030000Y-111423000D01*
X138030000Y-112708563D02*
X136965563Y-113773000D01*
X138030000Y-108017437D02*
X136965563Y-106953000D01*
X139057500Y-112210500D02*
X138270000Y-112210500D01*
X138663750Y-112604250D02*
X138663750Y-111816750D01*
X165346748Y-96239000D02*
X165869252Y-96239000D01*
X165346748Y-94769000D02*
X165869252Y-94769000D01*
X158856750Y-92665250D02*
X158856750Y-91877750D01*
X159250500Y-92271500D02*
X158463000Y-92271500D01*
X158223000Y-88078437D02*
X157158563Y-87014000D01*
X158223000Y-92769563D02*
X157158563Y-93834000D01*
X158223000Y-92769563D02*
X158223000Y-91484000D01*
X158223000Y-88078437D02*
X158223000Y-89364000D01*
X157158563Y-87014000D02*
X151403000Y-87014000D01*
X157158563Y-93834000D02*
X151403000Y-93834000D01*
X151403000Y-93834000D02*
X151403000Y-91484000D01*
X151403000Y-87014000D02*
X151403000Y-89364000D01*
X151630748Y-118972000D02*
X152153252Y-118972000D01*
X151630748Y-117502000D02*
X152153252Y-117502000D01*
X130981750Y-96245750D02*
X131769250Y-96245750D01*
X131375500Y-96639500D02*
X131375500Y-95852000D01*
X135568563Y-95612000D02*
X136633000Y-94547563D01*
X130877437Y-95612000D02*
X129813000Y-94547563D01*
X130877437Y-95612000D02*
X132163000Y-95612000D01*
X135568563Y-95612000D02*
X134283000Y-95612000D01*
X136633000Y-94547563D02*
X136633000Y-88792000D01*
X129813000Y-94547563D02*
X129813000Y-88792000D01*
X129813000Y-88792000D02*
X132163000Y-88792000D01*
X136633000Y-88792000D02*
X134283000Y-88792000D01*
X152153252Y-97563000D02*
X151630748Y-97563000D01*
X152153252Y-99033000D02*
X151630748Y-99033000D01*
X152153252Y-96493000D02*
X151630748Y-96493000D01*
X152153252Y-95023000D02*
X151630748Y-95023000D01*
X137568000Y-95130252D02*
X137568000Y-94607748D01*
X139038000Y-95130252D02*
X139038000Y-94607748D01*
X139263000Y-100999000D02*
X139263000Y-98314000D01*
X137343000Y-100999000D02*
X139263000Y-100999000D01*
X137343000Y-98314000D02*
X137343000Y-100999000D01*
X139038000Y-103732064D02*
X139038000Y-103277936D01*
X137568000Y-103732064D02*
X137568000Y-103277936D01*
X152119064Y-122020000D02*
X151664936Y-122020000D01*
X152119064Y-120550000D02*
X151664936Y-120550000D01*
X142130000Y-122107000D02*
X143780000Y-122107000D01*
X142130000Y-86427000D02*
X142130000Y-122107000D01*
X147430000Y-86427000D02*
X142130000Y-86427000D01*
X147430000Y-122107000D02*
X147430000Y-86427000D01*
X145780000Y-122107000D02*
X147430000Y-122107000D01*
X143780000Y-122107000D02*
G75*
G02*
X145780000Y-122107000I1000000J0D01*
G01*
X164978000Y-103867000D02*
X164978000Y-102607000D01*
X164978000Y-97047000D02*
X164978000Y-98307000D01*
X161218000Y-103867000D02*
X164978000Y-103867000D01*
X158968000Y-97047000D02*
X164978000Y-97047000D01*
X129813000Y-105827000D02*
X129813000Y-99817000D01*
X136633000Y-103577000D02*
X136633000Y-99817000D01*
X129813000Y-99817000D02*
X131073000Y-99817000D01*
X136633000Y-99817000D02*
X135373000Y-99817000D01*
D13*
X107588000Y-88885000D02*
G75*
G03*
X107588000Y-88885000I-100000J0D01*
G01*
D11*
X102438000Y-97335000D02*
X105588000Y-97335000D01*
X102438000Y-107135000D02*
X102438000Y-97335000D01*
X105588000Y-107135000D02*
X102438000Y-107135000D01*
X105588000Y-107405000D02*
X105588000Y-107135000D01*
X108688000Y-110135000D02*
X107468000Y-110135000D01*
X108688000Y-113335000D02*
X108688000Y-110135000D01*
X118388000Y-110135000D02*
X118388000Y-113335000D01*
X119618000Y-110135000D02*
X118388000Y-110135000D01*
X121488000Y-106235000D02*
X121488000Y-107355000D01*
X123038000Y-106235000D02*
X121488000Y-106235000D01*
X123038000Y-98135000D02*
X123038000Y-106235000D01*
X121488000Y-98135000D02*
X123038000Y-98135000D01*
X118988000Y-94235000D02*
X119618000Y-94235000D01*
X118988000Y-87935000D02*
X118988000Y-94235000D01*
X108088000Y-87935000D02*
X118988000Y-87935000D01*
X108088000Y-94235000D02*
X108088000Y-87935000D01*
X107468000Y-94235000D02*
X108088000Y-94235000D01*
X178588000Y-95251000D02*
X179208000Y-95251000D01*
X179208000Y-95251000D02*
X179208000Y-88951000D01*
X179208000Y-88951000D02*
X190108000Y-88951000D01*
X190108000Y-88951000D02*
X190108000Y-95251000D01*
X190108000Y-95251000D02*
X190738000Y-95251000D01*
X192608000Y-99151000D02*
X194158000Y-99151000D01*
X194158000Y-99151000D02*
X194158000Y-107251000D01*
X194158000Y-107251000D02*
X192608000Y-107251000D01*
X192608000Y-107251000D02*
X192608000Y-108371000D01*
X190738000Y-111151000D02*
X189508000Y-111151000D01*
X189508000Y-111151000D02*
X189508000Y-114351000D01*
X179808000Y-114351000D02*
X179808000Y-111151000D01*
X179808000Y-111151000D02*
X178588000Y-111151000D01*
X176708000Y-108421000D02*
X176708000Y-108151000D01*
X176708000Y-108151000D02*
X173558000Y-108151000D01*
X173558000Y-108151000D02*
X173558000Y-98351000D01*
X173558000Y-98351000D02*
X176708000Y-98351000D01*
D13*
X178708000Y-89901000D02*
G75*
G03*
X178708000Y-89901000I-100000J0D01*
G01*
D12*
X138998000Y-119853400D02*
X138998000Y-121183400D01*
X137668000Y-119853400D02*
X138998000Y-119853400D01*
X136398000Y-119853400D02*
X136398000Y-122513400D01*
X136398000Y-122513400D02*
X133798000Y-122513400D01*
X136398000Y-119853400D02*
X133798000Y-119853400D01*
X133798000Y-119853400D02*
X133798000Y-122513400D01*
X151892000Y-101159000D02*
X153222000Y-101159000D01*
X153222000Y-101159000D02*
X153222000Y-102489000D01*
X153222000Y-103759000D02*
X153222000Y-116519000D01*
X150562000Y-116519000D02*
X153222000Y-116519000D01*
X150562000Y-103759000D02*
X150562000Y-116519000D01*
X150562000Y-103759000D02*
X153222000Y-103759000D01*
X149350000Y-83499000D02*
X149350000Y-84859000D01*
X140210000Y-78299000D02*
X139640000Y-78299000D01*
X142750000Y-78299000D02*
X141730000Y-78299000D01*
X145290000Y-78299000D02*
X144270000Y-78299000D01*
X147830000Y-78299000D02*
X146810000Y-78299000D01*
X149920000Y-78299000D02*
X149350000Y-78299000D01*
X139640000Y-78299000D02*
X139640000Y-83499000D01*
X140210000Y-83499000D02*
X139640000Y-83499000D01*
X142750000Y-83499000D02*
X141730000Y-83499000D01*
X145290000Y-83499000D02*
X144270000Y-83499000D01*
X147830000Y-83499000D02*
X146810000Y-83499000D01*
X149920000Y-83499000D02*
X149350000Y-83499000D01*
X149920000Y-78299000D02*
X149920000Y-83499000D01*
X129679700Y-119866100D02*
X129679700Y-122526100D01*
X129679700Y-119866100D02*
X124539700Y-119866100D01*
X124539700Y-119866100D02*
X124539700Y-122526100D01*
X129679700Y-122526100D02*
X124539700Y-122526100D01*
X132279700Y-122526100D02*
X130949700Y-122526100D01*
X132279700Y-121196100D02*
X132279700Y-122526100D01*
X131258000Y-116459000D02*
X131258000Y-115129000D01*
X131258000Y-115129000D02*
X132588000Y-115129000D01*
X133858000Y-115129000D02*
X138998000Y-115129000D01*
X138998000Y-117789000D02*
X138998000Y-115129000D01*
X133858000Y-117789000D02*
X138998000Y-117789000D01*
X133858000Y-117789000D02*
X133858000Y-115129000D01*
X158160000Y-103962000D02*
X158160000Y-95987000D01*
X154260000Y-103962000D02*
X158160000Y-103962000D01*
X154260000Y-95987000D02*
X154260000Y-103962000D01*
D11*
X155829000Y-106298000D02*
X168529000Y-106298000D01*
X168529000Y-106298000D02*
X168529000Y-108018000D01*
X168529000Y-111438000D02*
X168529000Y-113158000D01*
X168529000Y-113158000D02*
X155829000Y-113158000D01*
X155829000Y-106298000D02*
X155829000Y-108018000D01*
X155829000Y-111438000D02*
X155829000Y-113158000D01*
D13*
X157579000Y-113728000D02*
G75*
G03*
X157579000Y-113728000I-100000J0D01*
G01*
X157579000Y-121856000D02*
G75*
G03*
X157579000Y-121856000I-100000J0D01*
G01*
D11*
X155829000Y-119566000D02*
X155829000Y-121286000D01*
X155829000Y-114426000D02*
X155829000Y-116146000D01*
X168529000Y-121286000D02*
X155829000Y-121286000D01*
X168529000Y-119566000D02*
X168529000Y-121286000D01*
X168529000Y-114426000D02*
X168529000Y-116146000D01*
X155829000Y-114426000D02*
X168529000Y-114426000D01*
D14*
X188010895Y-83243680D02*
X188010895Y-82243680D01*
X188010895Y-82719871D02*
X188582323Y-82719871D01*
X188582323Y-83243680D02*
X188582323Y-82243680D01*
X188963276Y-82243680D02*
X189582323Y-82243680D01*
X189248990Y-82624633D01*
X189391847Y-82624633D01*
X189487085Y-82672252D01*
X189534704Y-82719871D01*
X189582323Y-82815109D01*
X189582323Y-83053204D01*
X189534704Y-83148442D01*
X189487085Y-83196061D01*
X189391847Y-83243680D01*
X189106133Y-83243680D01*
X189010895Y-83196061D01*
X188963276Y-83148442D01*
X100711095Y-84462880D02*
X100711095Y-83462880D01*
X100711095Y-83939071D02*
X101282523Y-83939071D01*
X101282523Y-84462880D02*
X101282523Y-83462880D01*
X102187285Y-83796214D02*
X102187285Y-84462880D01*
X101949190Y-83415261D02*
X101711095Y-84129547D01*
X102330142Y-84129547D01*
X165187333Y-86475842D02*
X165139714Y-86523461D01*
X164996857Y-86571080D01*
X164901619Y-86571080D01*
X164758761Y-86523461D01*
X164663523Y-86428223D01*
X164615904Y-86332985D01*
X164568285Y-86142509D01*
X164568285Y-85999652D01*
X164615904Y-85809176D01*
X164663523Y-85713938D01*
X164758761Y-85618700D01*
X164901619Y-85571080D01*
X164996857Y-85571080D01*
X165139714Y-85618700D01*
X165187333Y-85666319D01*
X166139714Y-86571080D02*
X165568285Y-86571080D01*
X165854000Y-86571080D02*
X165854000Y-85571080D01*
X165758761Y-85713938D01*
X165663523Y-85809176D01*
X165568285Y-85856795D01*
D11*
X138459633Y-113528928D02*
X138435442Y-113553119D01*
X138362871Y-113577309D01*
X138314490Y-113577309D01*
X138241919Y-113553119D01*
X138193538Y-113504738D01*
X138169347Y-113456357D01*
X138145157Y-113359595D01*
X138145157Y-113287023D01*
X138169347Y-113190261D01*
X138193538Y-113141880D01*
X138241919Y-113093500D01*
X138314490Y-113069309D01*
X138362871Y-113069309D01*
X138435442Y-113093500D01*
X138459633Y-113117690D01*
X138653157Y-113117690D02*
X138677347Y-113093500D01*
X138725728Y-113069309D01*
X138846680Y-113069309D01*
X138895061Y-113093500D01*
X138919252Y-113117690D01*
X138943442Y-113166071D01*
X138943442Y-113214452D01*
X138919252Y-113287023D01*
X138628966Y-113577309D01*
X138943442Y-113577309D01*
D14*
X168349633Y-95797642D02*
X168302014Y-95845261D01*
X168159157Y-95892880D01*
X168063919Y-95892880D01*
X167921061Y-95845261D01*
X167825823Y-95750023D01*
X167778204Y-95654785D01*
X167730585Y-95464309D01*
X167730585Y-95321452D01*
X167778204Y-95130976D01*
X167825823Y-95035738D01*
X167921061Y-94940500D01*
X168063919Y-94892880D01*
X168159157Y-94892880D01*
X168302014Y-94940500D01*
X168349633Y-94988119D01*
X168682966Y-94892880D02*
X169302014Y-94892880D01*
X168968680Y-95273833D01*
X169111538Y-95273833D01*
X169206776Y-95321452D01*
X169254395Y-95369071D01*
X169302014Y-95464309D01*
X169302014Y-95702404D01*
X169254395Y-95797642D01*
X169206776Y-95845261D01*
X169111538Y-95892880D01*
X168825823Y-95892880D01*
X168730585Y-95845261D01*
X168682966Y-95797642D01*
X154760633Y-86348842D02*
X154713014Y-86396461D01*
X154570157Y-86444080D01*
X154474919Y-86444080D01*
X154332061Y-86396461D01*
X154236823Y-86301223D01*
X154189204Y-86205985D01*
X154141585Y-86015509D01*
X154141585Y-85872652D01*
X154189204Y-85682176D01*
X154236823Y-85586938D01*
X154332061Y-85491700D01*
X154474919Y-85444080D01*
X154570157Y-85444080D01*
X154713014Y-85491700D01*
X154760633Y-85539319D01*
X155617776Y-85777414D02*
X155617776Y-86444080D01*
X155379680Y-85396461D02*
X155141585Y-86110747D01*
X155760633Y-86110747D01*
D11*
X151743833Y-120044028D02*
X151719642Y-120068219D01*
X151647071Y-120092409D01*
X151598690Y-120092409D01*
X151526119Y-120068219D01*
X151477738Y-120019838D01*
X151453547Y-119971457D01*
X151429357Y-119874695D01*
X151429357Y-119802123D01*
X151453547Y-119705361D01*
X151477738Y-119656980D01*
X151526119Y-119608600D01*
X151598690Y-119584409D01*
X151647071Y-119584409D01*
X151719642Y-119608600D01*
X151743833Y-119632790D01*
X152203452Y-119584409D02*
X151961547Y-119584409D01*
X151937357Y-119826314D01*
X151961547Y-119802123D01*
X152009928Y-119777933D01*
X152130880Y-119777933D01*
X152179261Y-119802123D01*
X152203452Y-119826314D01*
X152227642Y-119874695D01*
X152227642Y-119995647D01*
X152203452Y-120044028D01*
X152179261Y-120068219D01*
X152130880Y-120092409D01*
X152009928Y-120092409D01*
X151961547Y-120068219D01*
X151937357Y-120044028D01*
X132998633Y-86858928D02*
X132974442Y-86883119D01*
X132901871Y-86907309D01*
X132853490Y-86907309D01*
X132780919Y-86883119D01*
X132732538Y-86834738D01*
X132708347Y-86786357D01*
X132684157Y-86689595D01*
X132684157Y-86617023D01*
X132708347Y-86520261D01*
X132732538Y-86471880D01*
X132780919Y-86423500D01*
X132853490Y-86399309D01*
X132901871Y-86399309D01*
X132974442Y-86423500D01*
X132998633Y-86447690D01*
X133434061Y-86399309D02*
X133337300Y-86399309D01*
X133288919Y-86423500D01*
X133264728Y-86447690D01*
X133216347Y-86520261D01*
X133192157Y-86617023D01*
X133192157Y-86810547D01*
X133216347Y-86858928D01*
X133240538Y-86883119D01*
X133288919Y-86907309D01*
X133385680Y-86907309D01*
X133434061Y-86883119D01*
X133458252Y-86858928D01*
X133482442Y-86810547D01*
X133482442Y-86689595D01*
X133458252Y-86641214D01*
X133434061Y-86617023D01*
X133385680Y-86592833D01*
X133288919Y-86592833D01*
X133240538Y-86617023D01*
X133216347Y-86641214D01*
X133192157Y-86689595D01*
X150435733Y-100003428D02*
X150411542Y-100027619D01*
X150338971Y-100051809D01*
X150290590Y-100051809D01*
X150218019Y-100027619D01*
X150169638Y-99979238D01*
X150145447Y-99930857D01*
X150121257Y-99834095D01*
X150121257Y-99761523D01*
X150145447Y-99664761D01*
X150169638Y-99616380D01*
X150218019Y-99568000D01*
X150290590Y-99543809D01*
X150338971Y-99543809D01*
X150411542Y-99568000D01*
X150435733Y-99592190D01*
X150605066Y-99543809D02*
X150943733Y-99543809D01*
X150726019Y-100051809D01*
X150372233Y-94390028D02*
X150348042Y-94414219D01*
X150275471Y-94438409D01*
X150227090Y-94438409D01*
X150154519Y-94414219D01*
X150106138Y-94365838D01*
X150081947Y-94317457D01*
X150057757Y-94220695D01*
X150057757Y-94148123D01*
X150081947Y-94051361D01*
X150106138Y-94002980D01*
X150154519Y-93954600D01*
X150227090Y-93930409D01*
X150275471Y-93930409D01*
X150348042Y-93954600D01*
X150372233Y-93978790D01*
X150662519Y-94148123D02*
X150614138Y-94123933D01*
X150589947Y-94099742D01*
X150565757Y-94051361D01*
X150565757Y-94027171D01*
X150589947Y-93978790D01*
X150614138Y-93954600D01*
X150662519Y-93930409D01*
X150759280Y-93930409D01*
X150807661Y-93954600D01*
X150831852Y-93978790D01*
X150856042Y-94027171D01*
X150856042Y-94051361D01*
X150831852Y-94099742D01*
X150807661Y-94123933D01*
X150759280Y-94148123D01*
X150662519Y-94148123D01*
X150614138Y-94172314D01*
X150589947Y-94196504D01*
X150565757Y-94244885D01*
X150565757Y-94341647D01*
X150589947Y-94390028D01*
X150614138Y-94414219D01*
X150662519Y-94438409D01*
X150759280Y-94438409D01*
X150807661Y-94414219D01*
X150831852Y-94390028D01*
X150856042Y-94341647D01*
X150856042Y-94244885D01*
X150831852Y-94196504D01*
X150807661Y-94172314D01*
X150759280Y-94148123D01*
X138167533Y-92700928D02*
X138143342Y-92725119D01*
X138070771Y-92749309D01*
X138022390Y-92749309D01*
X137949819Y-92725119D01*
X137901438Y-92676738D01*
X137877247Y-92628357D01*
X137853057Y-92531595D01*
X137853057Y-92459023D01*
X137877247Y-92362261D01*
X137901438Y-92313880D01*
X137949819Y-92265500D01*
X138022390Y-92241309D01*
X138070771Y-92241309D01*
X138143342Y-92265500D01*
X138167533Y-92289690D01*
X138409438Y-92749309D02*
X138506200Y-92749309D01*
X138554580Y-92725119D01*
X138578771Y-92700928D01*
X138627152Y-92628357D01*
X138651342Y-92531595D01*
X138651342Y-92338071D01*
X138627152Y-92289690D01*
X138602961Y-92265500D01*
X138554580Y-92241309D01*
X138457819Y-92241309D01*
X138409438Y-92265500D01*
X138385247Y-92289690D01*
X138361057Y-92338071D01*
X138361057Y-92459023D01*
X138385247Y-92507404D01*
X138409438Y-92531595D01*
X138457819Y-92555785D01*
X138554580Y-92555785D01*
X138602961Y-92531595D01*
X138627152Y-92507404D01*
X138651342Y-92459023D01*
X137877247Y-97435609D02*
X137877247Y-96927609D01*
X137998200Y-96927609D01*
X138070771Y-96951800D01*
X138119152Y-97000180D01*
X138143342Y-97048561D01*
X138167533Y-97145323D01*
X138167533Y-97217895D01*
X138143342Y-97314657D01*
X138119152Y-97363038D01*
X138070771Y-97411419D01*
X137998200Y-97435609D01*
X137877247Y-97435609D01*
X138651342Y-97435609D02*
X138361057Y-97435609D01*
X138506200Y-97435609D02*
X138506200Y-96927609D01*
X138457819Y-97000180D01*
X138409438Y-97048561D01*
X138361057Y-97072752D01*
X138332633Y-106287509D02*
X138163300Y-106045604D01*
X138042347Y-106287509D02*
X138042347Y-105779509D01*
X138235871Y-105779509D01*
X138284252Y-105803700D01*
X138308442Y-105827890D01*
X138332633Y-105876271D01*
X138332633Y-105948842D01*
X138308442Y-105997223D01*
X138284252Y-106021414D01*
X138235871Y-106045604D01*
X138042347Y-106045604D01*
X138816442Y-106287509D02*
X138526157Y-106287509D01*
X138671300Y-106287509D02*
X138671300Y-105779509D01*
X138622919Y-105852080D01*
X138574538Y-105900461D01*
X138526157Y-105924652D01*
X151705733Y-123051509D02*
X151536400Y-122809604D01*
X151415447Y-123051509D02*
X151415447Y-122543509D01*
X151608971Y-122543509D01*
X151657352Y-122567700D01*
X151681542Y-122591890D01*
X151705733Y-122640271D01*
X151705733Y-122712842D01*
X151681542Y-122761223D01*
X151657352Y-122785414D01*
X151608971Y-122809604D01*
X151415447Y-122809604D01*
X151899257Y-122591890D02*
X151923447Y-122567700D01*
X151971828Y-122543509D01*
X152092780Y-122543509D01*
X152141161Y-122567700D01*
X152165352Y-122591890D01*
X152189542Y-122640271D01*
X152189542Y-122688652D01*
X152165352Y-122761223D01*
X151875066Y-123051509D01*
X152189542Y-123051509D01*
D14*
X147853495Y-123620280D02*
X147853495Y-124429804D01*
X147901114Y-124525042D01*
X147948733Y-124572661D01*
X148043971Y-124620280D01*
X148234447Y-124620280D01*
X148329685Y-124572661D01*
X148377304Y-124525042D01*
X148424923Y-124429804D01*
X148424923Y-123620280D01*
X149424923Y-124620280D02*
X148853495Y-124620280D01*
X149139209Y-124620280D02*
X149139209Y-123620280D01*
X149043971Y-123763138D01*
X148948733Y-123858376D01*
X148853495Y-123905995D01*
D11*
X161017252Y-96114809D02*
X161017252Y-96526047D01*
X161041442Y-96574428D01*
X161065633Y-96598619D01*
X161114014Y-96622809D01*
X161210776Y-96622809D01*
X161259157Y-96598619D01*
X161283347Y-96574428D01*
X161307538Y-96526047D01*
X161307538Y-96114809D01*
X161525252Y-96163190D02*
X161549442Y-96139000D01*
X161597823Y-96114809D01*
X161718776Y-96114809D01*
X161767157Y-96139000D01*
X161791347Y-96163190D01*
X161815538Y-96211571D01*
X161815538Y-96259952D01*
X161791347Y-96332523D01*
X161501061Y-96622809D01*
X161815538Y-96622809D01*
X128467152Y-100674109D02*
X128467152Y-101085347D01*
X128491342Y-101133728D01*
X128515533Y-101157919D01*
X128563914Y-101182109D01*
X128660676Y-101182109D01*
X128709057Y-101157919D01*
X128733247Y-101133728D01*
X128757438Y-101085347D01*
X128757438Y-100674109D01*
X128950961Y-100674109D02*
X129265438Y-100674109D01*
X129096104Y-100867633D01*
X129168676Y-100867633D01*
X129217057Y-100891823D01*
X129241247Y-100916014D01*
X129265438Y-100964395D01*
X129265438Y-101085347D01*
X129241247Y-101133728D01*
X129217057Y-101157919D01*
X129168676Y-101182109D01*
X129023533Y-101182109D01*
X128975152Y-101157919D01*
X128950961Y-101133728D01*
D14*
X112776095Y-86447380D02*
X112776095Y-87256904D01*
X112823714Y-87352142D01*
X112871333Y-87399761D01*
X112966571Y-87447380D01*
X113157047Y-87447380D01*
X113252285Y-87399761D01*
X113299904Y-87352142D01*
X113347523Y-87256904D01*
X113347523Y-86447380D01*
X114252285Y-86780714D02*
X114252285Y-87447380D01*
X114014190Y-86399761D02*
X113776095Y-87114047D01*
X114395142Y-87114047D01*
X183896095Y-87209380D02*
X183896095Y-88018904D01*
X183943714Y-88114142D01*
X183991333Y-88161761D01*
X184086571Y-88209380D01*
X184277047Y-88209380D01*
X184372285Y-88161761D01*
X184419904Y-88114142D01*
X184467523Y-88018904D01*
X184467523Y-87209380D01*
X185419904Y-87209380D02*
X184943714Y-87209380D01*
X184896095Y-87685571D01*
X184943714Y-87637952D01*
X185038952Y-87590333D01*
X185277047Y-87590333D01*
X185372285Y-87637952D01*
X185419904Y-87685571D01*
X185467523Y-87780809D01*
X185467523Y-88018904D01*
X185419904Y-88114142D01*
X185372285Y-88161761D01*
X185277047Y-88209380D01*
X185038952Y-88209380D01*
X184943714Y-88161761D01*
X184896095Y-88114142D01*
X137334666Y-123175780D02*
X137334666Y-123890066D01*
X137287047Y-124032923D01*
X137191809Y-124128161D01*
X137048952Y-124175780D01*
X136953714Y-124175780D01*
X138334666Y-124175780D02*
X137763238Y-124175780D01*
X138048952Y-124175780D02*
X138048952Y-123175780D01*
X137953714Y-123318638D01*
X137858476Y-123413876D01*
X137763238Y-123461495D01*
D11*
X153881666Y-104738109D02*
X153881666Y-105100966D01*
X153857476Y-105173538D01*
X153809095Y-105221919D01*
X153736523Y-105246109D01*
X153688142Y-105246109D01*
X154075190Y-104738109D02*
X154389666Y-104738109D01*
X154220333Y-104931633D01*
X154292904Y-104931633D01*
X154341285Y-104955823D01*
X154365476Y-104980014D01*
X154389666Y-105028395D01*
X154389666Y-105149347D01*
X154365476Y-105197728D01*
X154341285Y-105221919D01*
X154292904Y-105246109D01*
X154147761Y-105246109D01*
X154099380Y-105221919D01*
X154075190Y-105197728D01*
D14*
X148002666Y-80224380D02*
X148002666Y-80938666D01*
X147955047Y-81081523D01*
X147859809Y-81176761D01*
X147716952Y-81224380D01*
X147621714Y-81224380D01*
X148907428Y-80224380D02*
X148716952Y-80224380D01*
X148621714Y-80272000D01*
X148574095Y-80319619D01*
X148478857Y-80462476D01*
X148431238Y-80652952D01*
X148431238Y-81033904D01*
X148478857Y-81129142D01*
X148526476Y-81176761D01*
X148621714Y-81224380D01*
X148812190Y-81224380D01*
X148907428Y-81176761D01*
X148955047Y-81129142D01*
X149002666Y-81033904D01*
X149002666Y-80795809D01*
X148955047Y-80700571D01*
X148907428Y-80652952D01*
X148812190Y-80605333D01*
X148621714Y-80605333D01*
X148526476Y-80652952D01*
X148478857Y-80700571D01*
X148431238Y-80795809D01*
X120726366Y-120457861D02*
X120869223Y-120505480D01*
X121107319Y-120505480D01*
X121202557Y-120457861D01*
X121250176Y-120410242D01*
X121297795Y-120315004D01*
X121297795Y-120219766D01*
X121250176Y-120124528D01*
X121202557Y-120076909D01*
X121107319Y-120029290D01*
X120916842Y-119981671D01*
X120821604Y-119934052D01*
X120773985Y-119886433D01*
X120726366Y-119791195D01*
X120726366Y-119695957D01*
X120773985Y-119600719D01*
X120821604Y-119553100D01*
X120916842Y-119505480D01*
X121154938Y-119505480D01*
X121297795Y-119553100D01*
X121631128Y-119505480D02*
X121869223Y-120505480D01*
X122059700Y-119791195D01*
X122250176Y-120505480D01*
X122488271Y-119505480D01*
X122821604Y-119600719D02*
X122869223Y-119553100D01*
X122964461Y-119505480D01*
X123202557Y-119505480D01*
X123297795Y-119553100D01*
X123345414Y-119600719D01*
X123393033Y-119695957D01*
X123393033Y-119791195D01*
X123345414Y-119934052D01*
X122773985Y-120505480D01*
X123393033Y-120505480D01*
X127698666Y-116101761D02*
X127841523Y-116149380D01*
X128079619Y-116149380D01*
X128174857Y-116101761D01*
X128222476Y-116054142D01*
X128270095Y-115958904D01*
X128270095Y-115863666D01*
X128222476Y-115768428D01*
X128174857Y-115720809D01*
X128079619Y-115673190D01*
X127889142Y-115625571D01*
X127793904Y-115577952D01*
X127746285Y-115530333D01*
X127698666Y-115435095D01*
X127698666Y-115339857D01*
X127746285Y-115244619D01*
X127793904Y-115197000D01*
X127889142Y-115149380D01*
X128127238Y-115149380D01*
X128270095Y-115197000D01*
X128603428Y-115149380D02*
X128841523Y-116149380D01*
X129032000Y-115435095D01*
X129222476Y-116149380D01*
X129460571Y-115149380D01*
X129746285Y-115149380D02*
X130365333Y-115149380D01*
X130032000Y-115530333D01*
X130174857Y-115530333D01*
X130270095Y-115577952D01*
X130317714Y-115625571D01*
X130365333Y-115720809D01*
X130365333Y-115958904D01*
X130317714Y-116054142D01*
X130270095Y-116101761D01*
X130174857Y-116149380D01*
X129889142Y-116149380D01*
X129793904Y-116101761D01*
X129746285Y-116054142D01*
D11*
X158508095Y-95542704D02*
X158508095Y-95784609D01*
X158338761Y-95276609D02*
X158508095Y-95542704D01*
X158677428Y-95276609D01*
X159112857Y-95784609D02*
X158822571Y-95784609D01*
X158967714Y-95784609D02*
X158967714Y-95276609D01*
X158919333Y-95349180D01*
X158870952Y-95397561D01*
X158822571Y-95421752D01*
D14*
X165709766Y-105598861D02*
X165852623Y-105646480D01*
X166090719Y-105646480D01*
X166185957Y-105598861D01*
X166233576Y-105551242D01*
X166281195Y-105456004D01*
X166281195Y-105360766D01*
X166233576Y-105265528D01*
X166185957Y-105217909D01*
X166090719Y-105170290D01*
X165900242Y-105122671D01*
X165805004Y-105075052D01*
X165757385Y-105027433D01*
X165709766Y-104932195D01*
X165709766Y-104836957D01*
X165757385Y-104741719D01*
X165805004Y-104694100D01*
X165900242Y-104646480D01*
X166138338Y-104646480D01*
X166281195Y-104694100D01*
X166614528Y-104646480D02*
X166852623Y-105646480D01*
X167043100Y-104932195D01*
X167233576Y-105646480D01*
X167471671Y-104646480D01*
X168376433Y-105646480D02*
X167805004Y-105646480D01*
X168090719Y-105646480D02*
X168090719Y-104646480D01*
X167995480Y-104789338D01*
X167900242Y-104884576D01*
X167805004Y-104932195D01*
X169037166Y-115847761D02*
X169180023Y-115895380D01*
X169418119Y-115895380D01*
X169513357Y-115847761D01*
X169560976Y-115800142D01*
X169608595Y-115704904D01*
X169608595Y-115609666D01*
X169560976Y-115514428D01*
X169513357Y-115466809D01*
X169418119Y-115419190D01*
X169227642Y-115371571D01*
X169132404Y-115323952D01*
X169084785Y-115276333D01*
X169037166Y-115181095D01*
X169037166Y-115085857D01*
X169084785Y-114990619D01*
X169132404Y-114943000D01*
X169227642Y-114895380D01*
X169465738Y-114895380D01*
X169608595Y-114943000D01*
X169941928Y-114895380D02*
X170180023Y-115895380D01*
X170370500Y-115181095D01*
X170560976Y-115895380D01*
X170799071Y-114895380D01*
X171608595Y-115228714D02*
X171608595Y-115895380D01*
X171370500Y-114847761D02*
X171132404Y-115562047D01*
X171751452Y-115562047D01*
X104648095Y-116132380D02*
X104648095Y-115132380D01*
X104648095Y-115608571D02*
X105219523Y-115608571D01*
X105219523Y-116132380D02*
X105219523Y-115132380D01*
X106219523Y-116132380D02*
X105648095Y-116132380D01*
X105933809Y-116132380D02*
X105933809Y-115132380D01*
X105838571Y-115275238D01*
X105743333Y-115370476D01*
X105648095Y-115418095D01*
X187756895Y-120073680D02*
X187756895Y-119073680D01*
X187756895Y-119549871D02*
X188328323Y-119549871D01*
X188328323Y-120073680D02*
X188328323Y-119073680D01*
X188756895Y-119168919D02*
X188804514Y-119121300D01*
X188899752Y-119073680D01*
X189137847Y-119073680D01*
X189233085Y-119121300D01*
X189280704Y-119168919D01*
X189328323Y-119264157D01*
X189328323Y-119359395D01*
X189280704Y-119502252D01*
X188709276Y-120073680D01*
X189328323Y-120073680D01*
%LPC*%
D15*
X193040000Y-82550000D03*
X105410000Y-81915000D03*
G36*
G01*
X161027000Y-90974000D02*
X161027000Y-89874000D01*
G75*
G02*
X161277000Y-89624000I250000J0D01*
G01*
X164102000Y-89624000D01*
G75*
G02*
X164352000Y-89874000I0J-250000D01*
G01*
X164352000Y-90974000D01*
G75*
G02*
X164102000Y-91224000I-250000J0D01*
G01*
X161277000Y-91224000D01*
G75*
G02*
X161027000Y-90974000I0J250000D01*
G01*
G37*
G36*
G01*
X166102000Y-90974000D02*
X166102000Y-89874000D01*
G75*
G02*
X166352000Y-89624000I250000J0D01*
G01*
X169177000Y-89624000D01*
G75*
G02*
X169427000Y-89874000I0J-250000D01*
G01*
X169427000Y-90974000D01*
G75*
G02*
X169177000Y-91224000I-250000J0D01*
G01*
X166352000Y-91224000D01*
G75*
G02*
X166102000Y-90974000I0J250000D01*
G01*
G37*
G36*
G01*
X133570000Y-109813000D02*
X133570000Y-110913000D01*
G75*
G02*
X133320000Y-111163000I-250000J0D01*
G01*
X130320000Y-111163000D01*
G75*
G02*
X130070000Y-110913000I0J250000D01*
G01*
X130070000Y-109813000D01*
G75*
G02*
X130320000Y-109563000I250000J0D01*
G01*
X133320000Y-109563000D01*
G75*
G02*
X133570000Y-109813000I0J-250000D01*
G01*
G37*
G36*
G01*
X139170000Y-109813000D02*
X139170000Y-110913000D01*
G75*
G02*
X138920000Y-111163000I-250000J0D01*
G01*
X135920000Y-111163000D01*
G75*
G02*
X135670000Y-110913000I0J250000D01*
G01*
X135670000Y-109813000D01*
G75*
G02*
X135920000Y-109563000I250000J0D01*
G01*
X138920000Y-109563000D01*
G75*
G02*
X139170000Y-109813000I0J-250000D01*
G01*
G37*
G36*
G01*
X163983000Y-95979000D02*
X163983000Y-95029000D01*
G75*
G02*
X164233000Y-94779000I250000J0D01*
G01*
X164908000Y-94779000D01*
G75*
G02*
X165158000Y-95029000I0J-250000D01*
G01*
X165158000Y-95979000D01*
G75*
G02*
X164908000Y-96229000I-250000J0D01*
G01*
X164233000Y-96229000D01*
G75*
G02*
X163983000Y-95979000I0J250000D01*
G01*
G37*
G36*
G01*
X166058000Y-95979000D02*
X166058000Y-95029000D01*
G75*
G02*
X166308000Y-94779000I250000J0D01*
G01*
X166983000Y-94779000D01*
G75*
G02*
X167233000Y-95029000I0J-250000D01*
G01*
X167233000Y-95979000D01*
G75*
G02*
X166983000Y-96229000I-250000J0D01*
G01*
X166308000Y-96229000D01*
G75*
G02*
X166058000Y-95979000I0J250000D01*
G01*
G37*
G36*
G01*
X159363000Y-89874000D02*
X159363000Y-90974000D01*
G75*
G02*
X159113000Y-91224000I-250000J0D01*
G01*
X156113000Y-91224000D01*
G75*
G02*
X155863000Y-90974000I0J250000D01*
G01*
X155863000Y-89874000D01*
G75*
G02*
X156113000Y-89624000I250000J0D01*
G01*
X159113000Y-89624000D01*
G75*
G02*
X159363000Y-89874000I0J-250000D01*
G01*
G37*
G36*
G01*
X153763000Y-89874000D02*
X153763000Y-90974000D01*
G75*
G02*
X153513000Y-91224000I-250000J0D01*
G01*
X150513000Y-91224000D01*
G75*
G02*
X150263000Y-90974000I0J250000D01*
G01*
X150263000Y-89874000D01*
G75*
G02*
X150513000Y-89624000I250000J0D01*
G01*
X153513000Y-89624000D01*
G75*
G02*
X153763000Y-89874000I0J-250000D01*
G01*
G37*
G36*
G01*
X150267000Y-118712000D02*
X150267000Y-117762000D01*
G75*
G02*
X150517000Y-117512000I250000J0D01*
G01*
X151192000Y-117512000D01*
G75*
G02*
X151442000Y-117762000I0J-250000D01*
G01*
X151442000Y-118712000D01*
G75*
G02*
X151192000Y-118962000I-250000J0D01*
G01*
X150517000Y-118962000D01*
G75*
G02*
X150267000Y-118712000I0J250000D01*
G01*
G37*
G36*
G01*
X152342000Y-118712000D02*
X152342000Y-117762000D01*
G75*
G02*
X152592000Y-117512000I250000J0D01*
G01*
X153267000Y-117512000D01*
G75*
G02*
X153517000Y-117762000I0J-250000D01*
G01*
X153517000Y-118712000D01*
G75*
G02*
X153267000Y-118962000I-250000J0D01*
G01*
X152592000Y-118962000D01*
G75*
G02*
X152342000Y-118712000I0J250000D01*
G01*
G37*
G36*
G01*
X133773000Y-96752000D02*
X132673000Y-96752000D01*
G75*
G02*
X132423000Y-96502000I0J250000D01*
G01*
X132423000Y-93502000D01*
G75*
G02*
X132673000Y-93252000I250000J0D01*
G01*
X133773000Y-93252000D01*
G75*
G02*
X134023000Y-93502000I0J-250000D01*
G01*
X134023000Y-96502000D01*
G75*
G02*
X133773000Y-96752000I-250000J0D01*
G01*
G37*
G36*
G01*
X133773000Y-91152000D02*
X132673000Y-91152000D01*
G75*
G02*
X132423000Y-90902000I0J250000D01*
G01*
X132423000Y-87902000D01*
G75*
G02*
X132673000Y-87652000I250000J0D01*
G01*
X133773000Y-87652000D01*
G75*
G02*
X134023000Y-87902000I0J-250000D01*
G01*
X134023000Y-90902000D01*
G75*
G02*
X133773000Y-91152000I-250000J0D01*
G01*
G37*
G36*
G01*
X153517000Y-97823000D02*
X153517000Y-98773000D01*
G75*
G02*
X153267000Y-99023000I-250000J0D01*
G01*
X152592000Y-99023000D01*
G75*
G02*
X152342000Y-98773000I0J250000D01*
G01*
X152342000Y-97823000D01*
G75*
G02*
X152592000Y-97573000I250000J0D01*
G01*
X153267000Y-97573000D01*
G75*
G02*
X153517000Y-97823000I0J-250000D01*
G01*
G37*
G36*
G01*
X151442000Y-97823000D02*
X151442000Y-98773000D01*
G75*
G02*
X151192000Y-99023000I-250000J0D01*
G01*
X150517000Y-99023000D01*
G75*
G02*
X150267000Y-98773000I0J250000D01*
G01*
X150267000Y-97823000D01*
G75*
G02*
X150517000Y-97573000I250000J0D01*
G01*
X151192000Y-97573000D01*
G75*
G02*
X151442000Y-97823000I0J-250000D01*
G01*
G37*
G36*
G01*
X151442000Y-95283000D02*
X151442000Y-96233000D01*
G75*
G02*
X151192000Y-96483000I-250000J0D01*
G01*
X150517000Y-96483000D01*
G75*
G02*
X150267000Y-96233000I0J250000D01*
G01*
X150267000Y-95283000D01*
G75*
G02*
X150517000Y-95033000I250000J0D01*
G01*
X151192000Y-95033000D01*
G75*
G02*
X151442000Y-95283000I0J-250000D01*
G01*
G37*
G36*
G01*
X153517000Y-95283000D02*
X153517000Y-96233000D01*
G75*
G02*
X153267000Y-96483000I-250000J0D01*
G01*
X152592000Y-96483000D01*
G75*
G02*
X152342000Y-96233000I0J250000D01*
G01*
X152342000Y-95283000D01*
G75*
G02*
X152592000Y-95033000I250000J0D01*
G01*
X153267000Y-95033000D01*
G75*
G02*
X153517000Y-95283000I0J-250000D01*
G01*
G37*
G36*
G01*
X138778000Y-94419000D02*
X137828000Y-94419000D01*
G75*
G02*
X137578000Y-94169000I0J250000D01*
G01*
X137578000Y-93494000D01*
G75*
G02*
X137828000Y-93244000I250000J0D01*
G01*
X138778000Y-93244000D01*
G75*
G02*
X139028000Y-93494000I0J-250000D01*
G01*
X139028000Y-94169000D01*
G75*
G02*
X138778000Y-94419000I-250000J0D01*
G01*
G37*
G36*
G01*
X138778000Y-96494000D02*
X137828000Y-96494000D01*
G75*
G02*
X137578000Y-96244000I0J250000D01*
G01*
X137578000Y-95569000D01*
G75*
G02*
X137828000Y-95319000I250000J0D01*
G01*
X138778000Y-95319000D01*
G75*
G02*
X139028000Y-95569000I0J-250000D01*
G01*
X139028000Y-96244000D01*
G75*
G02*
X138778000Y-96494000I-250000J0D01*
G01*
G37*
G36*
G01*
X138759250Y-100739000D02*
X137846750Y-100739000D01*
G75*
G02*
X137603000Y-100495250I0J243750D01*
G01*
X137603000Y-100007750D01*
G75*
G02*
X137846750Y-99764000I243750J0D01*
G01*
X138759250Y-99764000D01*
G75*
G02*
X139003000Y-100007750I0J-243750D01*
G01*
X139003000Y-100495250D01*
G75*
G02*
X138759250Y-100739000I-243750J0D01*
G01*
G37*
G36*
G01*
X138759250Y-98864000D02*
X137846750Y-98864000D01*
G75*
G02*
X137603000Y-98620250I0J243750D01*
G01*
X137603000Y-98132750D01*
G75*
G02*
X137846750Y-97889000I243750J0D01*
G01*
X138759250Y-97889000D01*
G75*
G02*
X139003000Y-98132750I0J-243750D01*
G01*
X139003000Y-98620250D01*
G75*
G02*
X138759250Y-98864000I-243750J0D01*
G01*
G37*
G36*
G01*
X138753001Y-105105000D02*
X137852999Y-105105000D01*
G75*
G02*
X137603000Y-104855001I0J249999D01*
G01*
X137603000Y-104154999D01*
G75*
G02*
X137852999Y-103905000I249999J0D01*
G01*
X138753001Y-103905000D01*
G75*
G02*
X139003000Y-104154999I0J-249999D01*
G01*
X139003000Y-104855001D01*
G75*
G02*
X138753001Y-105105000I-249999J0D01*
G01*
G37*
G36*
G01*
X138753001Y-103105000D02*
X137852999Y-103105000D01*
G75*
G02*
X137603000Y-102855001I0J249999D01*
G01*
X137603000Y-102154999D01*
G75*
G02*
X137852999Y-101905000I249999J0D01*
G01*
X138753001Y-101905000D01*
G75*
G02*
X139003000Y-102154999I0J-249999D01*
G01*
X139003000Y-102855001D01*
G75*
G02*
X138753001Y-103105000I-249999J0D01*
G01*
G37*
G36*
G01*
X151492000Y-120834999D02*
X151492000Y-121735001D01*
G75*
G02*
X151242001Y-121985000I-249999J0D01*
G01*
X150541999Y-121985000D01*
G75*
G02*
X150292000Y-121735001I0J249999D01*
G01*
X150292000Y-120834999D01*
G75*
G02*
X150541999Y-120585000I249999J0D01*
G01*
X151242001Y-120585000D01*
G75*
G02*
X151492000Y-120834999I0J-249999D01*
G01*
G37*
G36*
G01*
X153492000Y-120834999D02*
X153492000Y-121735001D01*
G75*
G02*
X153242001Y-121985000I-249999J0D01*
G01*
X152541999Y-121985000D01*
G75*
G02*
X152292000Y-121735001I0J249999D01*
G01*
X152292000Y-120834999D01*
G75*
G02*
X152541999Y-120585000I249999J0D01*
G01*
X153242001Y-120585000D01*
G75*
G02*
X153492000Y-120834999I0J-249999D01*
G01*
G37*
D16*
X148590000Y-120777000D03*
D17*
X140970000Y-87757000D03*
X148590000Y-118237000D03*
X140970000Y-90297000D03*
X148590000Y-115697000D03*
X140970000Y-92837000D03*
X148590000Y-113157000D03*
X140970000Y-95377000D03*
X148590000Y-110617000D03*
X140970000Y-97917000D03*
X148590000Y-108077000D03*
X140970000Y-100457000D03*
X148590000Y-105537000D03*
X140970000Y-102997000D03*
X148590000Y-102997000D03*
X140970000Y-105537000D03*
X148590000Y-100457000D03*
X140970000Y-108077000D03*
X148590000Y-97917000D03*
X140970000Y-110617000D03*
X148590000Y-95377000D03*
X140970000Y-113157000D03*
X148590000Y-92837000D03*
X140970000Y-115697000D03*
X148590000Y-90297000D03*
X140970000Y-118237000D03*
X148590000Y-87757000D03*
X140970000Y-120777000D03*
D18*
X159918000Y-98157000D03*
X159918000Y-102757000D03*
X159918000Y-100457000D03*
D19*
X166218000Y-100457000D03*
D20*
X133223000Y-98577000D03*
D21*
X133223000Y-104877000D03*
X135523000Y-104877000D03*
X130923000Y-104877000D03*
D22*
X110363000Y-89535000D03*
X116713000Y-89535000D03*
X110363000Y-94615000D03*
X116713000Y-94615000D03*
X110998000Y-112395000D03*
X113538000Y-112395000D03*
X116078000Y-112395000D03*
D23*
X105918000Y-95567500D03*
X105918000Y-108902500D03*
X121158000Y-108902500D03*
X121158000Y-95567500D03*
D22*
X103378000Y-99695000D03*
X103378000Y-102235000D03*
X103378000Y-104775000D03*
X174498000Y-105791000D03*
X174498000Y-103251000D03*
X174498000Y-100711000D03*
D23*
X192278000Y-96583500D03*
X192278000Y-109918500D03*
X177038000Y-109918500D03*
X177038000Y-96583500D03*
D22*
X187198000Y-113411000D03*
X184658000Y-113411000D03*
X182118000Y-113411000D03*
X187833000Y-95631000D03*
X181483000Y-95631000D03*
X187833000Y-90551000D03*
X181483000Y-90551000D03*
D24*
X137668000Y-121183400D03*
D25*
X135128000Y-121183400D03*
D24*
X151892000Y-102489000D03*
D25*
X151892000Y-105029000D03*
X151892000Y-107569000D03*
X151892000Y-110109000D03*
X151892000Y-112649000D03*
X151892000Y-115189000D03*
D26*
X148590000Y-83419000D03*
X148590000Y-78379000D03*
X146050000Y-83419000D03*
X146050000Y-78379000D03*
X143510000Y-83419000D03*
X143510000Y-78379000D03*
X140970000Y-83419000D03*
X140970000Y-78379000D03*
D25*
X125869700Y-121196100D03*
X128409700Y-121196100D03*
D24*
X130949700Y-121196100D03*
X132588000Y-116459000D03*
D25*
X135128000Y-116459000D03*
X137668000Y-116459000D03*
D27*
X156210000Y-102099500D03*
X156210000Y-96274500D03*
D28*
X166879000Y-109728000D03*
X162179000Y-109728000D03*
D29*
X157479000Y-109728000D03*
X157479000Y-117856000D03*
D28*
X162179000Y-117856000D03*
X166879000Y-117856000D03*
D15*
X105410000Y-119380000D03*
X193040000Y-119380000D03*
M02*
